<svg xmlns="http://www.w3.org/2000/svg" viewBox="0 0 290.86 68"><title>flex-direction2</title><rect x="248.75" width="18" height="18" fill="#e88024"/><rect x="248.75" y="25" width="18" height="18" fill="#e88024"/><rect x="248.75" y="50" width="18" height="18" fill="#e88024"/><line x1="281.75" y1="61" x2="281.75" y2="18.89" fill="none" stroke="#4470b7" stroke-miterlimit="10" stroke-width="5"/><polygon points="272.64 20.11 290.86 20.11 281.75 11 272.64 20.11" fill="#4470b7"/><rect x="188.75" width="18" height="18" fill="#e88024"/><rect x="188.75" y="25" width="18" height="18" fill="#e88024"/><rect x="188.75" y="50" width="18" height="18" fill="#e88024"/><line x1="221.75" y1="11" x2="221.75" y2="53.11" fill="none" stroke="#4470b7" stroke-miterlimit="10" stroke-width="5"/><polygon points="230.86 51.89 212.64 51.89 221.75 61 230.86 51.89" fill="#4470b7"/><rect x="50" y="36.25" width="18" height="18" fill="#e88024"/><rect x="25" y="36.25" width="18" height="18" fill="#e88024"/><rect y="36.25" width="18" height="18" fill="#e88024"/><line x1="9" y1="22.25" x2="51.11" y2="22.25" fill="none" stroke="#4470b7" stroke-miterlimit="10" stroke-width="5"/><polygon points="49.89 13.14 49.89 31.36 59 22.25 49.89 13.14" fill="#4470b7"/><rect x="144" y="36.25" width="18" height="18" fill="#e88024"/><rect x="119" y="36.25" width="18" height="18" fill="#e88024"/><rect x="94" y="36.25" width="18" height="18" fill="#e88024"/><line x1="153" y1="22.25" x2="110.89" y2="22.25" fill="none" stroke="#4470b7" stroke-miterlimit="10" stroke-width="5"/><polygon points="112.11 31.36 112.11 13.14 103 22.25 112.11 31.36" fill="#4470b7"/></svg>