<?xml version="1.0" standalone="no"?>
<!DOCTYPE svg PUBLIC "-//W3C//DTD SVG 1.1//EN" "http://www.w3.org/Graphics/SVG/1.1/DTD/svg11.dtd" >
<svg>
<metadata>
Created by FontForge 20120731 at Tue May 16 21:06:58 2017
 By www-data
</metadata>
<defs>
<font id="HiraginoSansGB-W3-Alphabetic" horiz-adv-x="1000" vert-adv-y="1000" >
  <font-face 
    font-family="(null)"
    font-weight="200"
    font-stretch="normal"
    units-per-em="1000"
    panose-1="2 0 3 3 0 0 0 0 0 0"
    ascent="800"
    descent="-200"
    x-height="543"
    cap-height="766"
    bbox="23 -120 977 879"
    underline-thickness="50"
    underline-position="-100"
    stemh="63"
    stemv="77"
    unicode-range="U+0391-FF5A"
  />
    <missing-glyph />
    <glyph glyph-name="GB1.277" unicode="&#xff10;" 
d="M499 -15c-74 0 -136 24 -183 71c-27 27 -48 58 -60 92c-25 70 -38 149 -38 231c0 106 23 214 58 272c48 81 125 123 224 123c74 0 138 -24 183 -71c28 -28 48 -59 60 -92c25 -69 38 -149 38 -232c0 -121 -26 -228 -70 -289c-50 -70 -120 -105 -212 -105zM499 705
c-52 0 -93 -17 -125 -51c-21 -23 -37 -48 -45 -73c-21 -61 -31 -129 -31 -202c0 -93 20 -191 47 -238c35 -58 87 -87 155 -87c50 0 93 16 123 47c22 23 38 49 47 78c21 62 31 128 31 202c0 87 -19 186 -45 233c-33 60 -87 91 -157 91z" />
    <glyph glyph-name="GB1.278" unicode="&#xff11;" 
d="M333 686v79c26 -4 45 -5 83 -5h63c34 0 50 1 83 5c-6 -61 -9 -112 -9 -166v-486c0 -47 2 -76 8 -113h-95c6 35 8 67 8 113v579h-54c-32 0 -58 -2 -87 -6z" />
    <glyph glyph-name="GB1.279" unicode="&#xff12;" 
d="M644 0h-304c-63 0 -78 -1 -110 -6c11 80 14 95 29 133c25 63 67 118 130 172c35 30 37 31 153 110c99 67 132 111 132 172c0 76 -64 125 -166 125c-66 0 -115 -22 -145 -65c-19 -27 -28 -51 -35 -101l-84 14c15 72 30 107 63 144c45 51 113 77 201 77
c151 0 248 -76 248 -194c0 -51 -20 -99 -59 -142c-30 -34 -56 -53 -170 -129c-79 -53 -111 -81 -144 -123c-31 -41 -45 -68 -57 -116h319c50 0 84 2 122 7v-84c-40 4 -73 6 -123 6z" />
    <glyph glyph-name="GB1.280" unicode="&#xff13;" 
d="M217 164l84 20c16 -51 30 -72 61 -94c34 -24 78 -36 129 -36c116 0 189 60 189 155c0 99 -71 153 -204 153c-28 0 -53 -2 -80 -5v78c23 -3 47 -5 74 -5c66 0 115 15 146 46c25 24 40 61 40 97c0 86 -60 136 -161 136c-61 0 -105 -17 -133 -53c-14 -18 -21 -34 -32 -72
l-83 19c17 51 29 74 54 100c44 48 112 73 199 73c145 0 237 -76 237 -196c0 -61 -26 -115 -70 -146c-26 -19 -48 -27 -94 -36c58 -6 89 -17 123 -43c44 -34 67 -87 67 -151c0 -135 -104 -219 -271 -219c-101 0 -176 27 -224 82c-21 24 -33 46 -51 97z" />
    <glyph glyph-name="GB1.281" unicode="&#xff14;" 
d="M198 190v75c21 24 44 52 65 77l253 316c34 42 52 67 75 102h75c-5 -59 -6 -90 -6 -169v-328h38c42 0 68 2 104 7v-83c-37 5 -62 7 -105 7h-37v-86c0 -48 2 -71 8 -108h-91c6 35 8 63 8 108v86h-268c-56 0 -86 -1 -119 -4zM586 262v254c0 53 1 85 6 136
c-21 -30 -46 -63 -75 -100l-230 -290h299z" />
    <glyph glyph-name="GB1.282" unicode="&#xff15;" 
d="M367 691l-21 -221c-2 -18 -2 -18 -8 -45c48 46 106 69 175 69c73 0 135 -24 180 -68s67 -103 67 -177c0 -161 -105 -264 -270 -264c-78 0 -143 23 -191 69c-25 24 -39 45 -63 93l82 25c10 -28 17 -42 32 -59c34 -38 84 -59 142 -59c112 0 187 76 187 191
c0 111 -69 183 -175 183c-51 0 -95 -14 -131 -42c-24 -19 -35 -33 -46 -60l-75 7c8 39 11 59 15 103l22 226c2 29 3 41 3 60c0 14 0 18 -2 43c31 -4 47 -5 106 -5h206c54 0 77 2 117 8v-85c-38 6 -70 8 -117 8h-235z" />
    <glyph glyph-name="GB1.283" unicode="&#xff16;" 
d="M754 620l-80 -26c-13 32 -20 46 -35 63c-30 33 -69 50 -119 50c-78 0 -137 -43 -173 -124c-26 -60 -35 -106 -42 -215c18 31 28 45 50 64c47 42 100 61 169 61c155 0 251 -97 251 -251s-104 -257 -262 -257c-71 0 -138 23 -181 63c-65 60 -101 172 -101 314
c0 125 28 238 76 303c53 72 124 109 211 109c60 0 114 -15 152 -42c35 -25 55 -52 84 -112zM696 241c0 118 -66 185 -183 185c-50 0 -103 -22 -138 -57c-33 -33 -50 -77 -50 -127c0 -108 81 -189 189 -189c65 0 125 31 156 81c16 26 26 67 26 107z" />
    <glyph glyph-name="GB1.284" unicode="&#xff17;" 
d="M764 765v-73c-18 -14 -35 -36 -74 -96c-90 -139 -132 -224 -171 -346c-26 -83 -37 -134 -53 -250h-95c32 181 59 271 121 399c48 100 91 169 180 290h-325c-47 0 -75 -2 -113 -7v85c39 -5 66 -7 114 -7h300c59 0 81 1 116 5z" />
    <glyph glyph-name="GB1.285" unicode="&#xff18;" 
d="M602 397c42 -5 70 -17 103 -42c50 -38 75 -90 75 -157c0 -137 -100 -214 -276 -214c-183 0 -284 76 -284 214c0 72 29 127 89 165c31 21 53 29 90 34c-88 17 -145 88 -145 180c0 122 95 199 246 199c153 0 247 -75 247 -198c0 -93 -56 -163 -145 -181zM500 709
c-102 0 -168 -54 -168 -137c0 -89 64 -143 169 -143s168 54 168 143c0 84 -66 137 -169 137zM500 360c-123 0 -198 -60 -198 -157c0 -95 73 -151 197 -151c70 0 127 18 161 52c25 23 38 58 38 99c0 98 -75 157 -198 157z" />
    <glyph glyph-name="GB1.286" unicode="&#xff19;" 
d="M236 140l82 26c12 -33 20 -48 36 -65c28 -31 71 -47 126 -47c72 0 124 29 161 92c19 33 35 81 43 129c4 24 7 66 9 116c-14 -26 -22 -37 -40 -55c-51 -48 -107 -70 -182 -70c-74 0 -137 23 -180 66s-68 109 -68 180c0 159 107 263 271 263c112 0 204 -64 242 -169
c20 -53 29 -121 29 -207c0 -139 -29 -253 -83 -320c-50 -63 -116 -93 -208 -93c-69 0 -125 18 -168 54c-28 24 -44 46 -70 100zM480 333c111 0 194 79 194 185c0 108 -80 189 -187 189c-66 0 -126 -32 -159 -85c-16 -26 -26 -66 -26 -105c0 -113 69 -184 178 -184z" />
    <glyph glyph-name="GB1.294" unicode="&#xff21;" 
d="M861 0h-103c-8 36 -19 71 -31 102l-52 129h-349l-52 -129c-15 -38 -24 -67 -31 -102h-104c20 33 27 48 54 115l224 552c19 47 27 70 32 93h101c4 -19 9 -32 34 -93l224 -552c25 -60 38 -89 53 -115zM651 300l-129 330c-3 8 -3 9 -22 64c-5 -15 -9 -26 -11 -33
c-6 -16 -9 -27 -11 -31l-128 -330h301z" />
    <glyph glyph-name="GB1.295" unicode="&#xff22;" 
d="M555 0h-224c-44 0 -75 -1 -110 -3c7 40 9 66 9 124v535c0 43 -2 70 -8 106c31 -2 51 -2 109 -2h213c145 0 226 -66 226 -184c0 -58 -18 -102 -54 -134c-21 -18 -39 -27 -79 -40c46 -9 70 -19 97 -42c41 -35 62 -86 62 -150c0 -134 -88 -210 -241 -210zM307 434h236
c93 0 148 49 148 133c0 83 -50 125 -149 125h-235v-258zM307 366v-298h241c109 0 167 52 167 148c0 99 -58 150 -169 150h-239z" />
    <glyph glyph-name="GB1.296" unicode="&#xff23;" 
d="M819 567l-80 -23c-15 43 -26 64 -47 88c-40 47 -100 72 -173 72c-162 0 -264 -124 -264 -323c0 -198 103 -324 264 -324c79 0 146 30 187 84c21 29 31 54 40 99l83 -19c-17 -59 -30 -87 -54 -119c-56 -75 -147 -116 -259 -116c-96 0 -177 30 -234 88
c-70 70 -108 179 -108 304c0 129 40 238 114 311c58 56 134 85 229 85c94 0 170 -27 224 -81c35 -34 54 -64 78 -126z" />
    <glyph glyph-name="GB1.297" unicode="&#xff24;" 
d="M206 116v533c0 43 -2 72 -8 114c35 -2 62 -3 110 -3h169c223 0 350 -136 350 -375c0 -125 -38 -229 -107 -296c-60 -59 -143 -89 -243 -89h-169c-48 0 -75 -1 -110 -3c6 39 8 69 8 119zM284 70h191c79 0 142 23 187 71c55 56 84 141 84 244c0 104 -26 184 -79 237
c-44 46 -106 68 -188 68h-195v-620z" />
    <glyph glyph-name="GB1.298" unicode="&#xff25;" 
d="M770 77v-84c-32 5 -59 7 -112 7h-293c-48 0 -76 -1 -110 -3c6 38 8 68 8 119v533c0 43 -2 70 -8 114c35 -2 62 -3 110 -3h285c44 0 78 2 112 7v-84c-35 5 -62 7 -112 7h-308v-256h263c44 0 74 2 112 7v-84c-34 5 -60 7 -112 7h-263v-294h317c46 0 74 2 111 7z" />
    <glyph glyph-name="GB1.299" unicode="&#xff26;" 
d="M363 360v-243c0 -54 2 -81 8 -117h-95c6 34 8 64 8 116v533c0 43 -2 74 -8 114c35 -2 62 -3 110 -3h265c49 0 77 2 115 7v-85c-33 5 -62 7 -115 7h-288v-259h234c48 0 77 2 114 7v-84c-33 5 -62 7 -114 7h-234z" />
    <glyph glyph-name="GB1.300" unicode="&#xff27;" 
d="M729 313h-59c-52 0 -75 -1 -103 -6v81c30 -5 55 -6 109 -6h29c47 0 75 1 106 4c-6 -42 -7 -67 -7 -113v-92c0 -47 1 -71 7 -111c-60 -36 -90 -50 -136 -62c-42 -12 -98 -19 -149 -19c-95 0 -170 24 -228 74c-78 69 -123 184 -123 319c0 241 136 394 349 394
c89 0 161 -25 214 -74c33 -31 51 -60 73 -114l-78 -26c-36 98 -103 144 -210 144c-165 0 -266 -123 -266 -324c0 -107 29 -195 84 -254c45 -48 107 -72 186 -72s143 18 202 56v201z" />
    <glyph glyph-name="GB1.301" unicode="&#xff28;" 
d="M718 760h94c-6 -38 -8 -63 -8 -110v-538c0 -49 2 -73 8 -112h-94c6 37 8 64 8 112v253h-452v-253c0 -50 2 -76 8 -112h-94c6 34 8 63 8 112v536c0 48 -2 77 -8 112h94c-6 -37 -8 -63 -8 -110v-214h452v212c0 47 -2 78 -8 112z" />
    <glyph glyph-name="GB1.302" unicode="&#xff29;" 
d="M453 760h95c-6 -33 -9 -70 -9 -112v-536c0 -44 3 -78 9 -112h-95c6 37 8 62 8 112v536c0 50 -2 76 -8 112z" />
    <glyph glyph-name="GB1.303" unicode="&#xff2a;" 
d="M583 760h94c-6 -37 -8 -62 -8 -112v-446c0 -68 -13 -115 -41 -151c-33 -42 -88 -64 -161 -64c-70 0 -127 21 -165 60c-19 20 -30 37 -50 77l79 33c13 -31 21 -45 35 -61c24 -26 59 -39 102 -39c85 0 123 44 123 144v447c0 48 -2 77 -8 112z" />
    <glyph glyph-name="GB1.304" unicode="&#xff2b;" 
d="M479 442l262 -333c57 -72 67 -83 94 -109h-116c-14 25 -31 51 -59 86l-236 304l-117 -115v-163c0 -50 2 -77 8 -112h-93c6 32 8 66 8 112v536c0 46 -2 75 -8 112h93c-6 -32 -8 -63 -8 -112v-277l304 306c38 38 55 58 69 83h118c-18 -17 -18 -17 -26 -25
c-16 -16 -31 -30 -44 -44c-18 -19 -30 -31 -33 -34z" />
    <glyph glyph-name="GB1.305" unicode="&#xff2c;" 
d="M677 0h-292c-46 0 -74 -1 -109 -3c6 38 8 70 8 119v526c0 52 -2 83 -8 118h94c-6 -37 -8 -63 -8 -118v-571h315c50 0 77 2 116 7v-85c-32 5 -60 7 -116 7z" />
    <glyph glyph-name="GB1.306" unicode="&#xff2d;" 
d="M426 105l-201 446c-15 32 -26 63 -45 124c3 -43 7 -105 7 -129v-428c0 -53 2 -84 8 -118h-91c6 37 8 66 8 118v523c0 50 -2 82 -8 119h116c6 -30 18 -66 33 -99l247 -551l246 551c17 39 28 70 34 99h115c-6 -38 -8 -67 -8 -119v-523c0 -55 2 -82 8 -118h-91
c6 34 8 70 8 118v434c0 28 3 82 7 123c-10 -41 -24 -81 -43 -122l-204 -449c-20 -45 -30 -71 -38 -104h-71c-5 26 -17 60 -37 105z" />
    <glyph glyph-name="GB1.307" unicode="&#xff2e;" 
d="M192 760h105c9 -23 22 -45 51 -90l316 -473c11 -17 41 -66 65 -109c-4 80 -6 124 -6 133v424c0 49 -2 80 -8 115h93c-6 -36 -8 -64 -8 -115v-533c0 -50 2 -80 8 -112h-109c-14 29 -25 49 -52 90l-321 482c-8 12 -41 69 -55 96c4 -47 6 -96 6 -122v-427
c0 -53 2 -86 8 -119h-93c6 32 8 67 8 119v529c0 46 -2 76 -8 112z" />
    <glyph glyph-name="GB1.308" unicode="&#xff2f;" 
d="M500 775c211 0 345 -154 345 -395s-135 -395 -346 -395s-345 154 -345 395c0 240 136 395 346 395zM501 56c69 0 128 23 173 68c57 56 89 149 89 256c0 110 -30 198 -88 256c-46 45 -106 69 -175 69c-160 0 -265 -128 -265 -324s106 -325 266 -325z" />
    <glyph glyph-name="GB1.309" unicode="&#xff30;" 
d="M340 0h-94c6 36 8 65 8 112v537c0 41 -2 72 -8 114c36 -2 64 -3 110 -3h204c154 0 241 -79 241 -218c0 -147 -90 -232 -246 -232h-223v-197c0 -48 2 -79 8 -113zM332 379h223c106 0 166 57 166 159c0 100 -58 153 -166 153h-223v-312z" />
    <glyph glyph-name="GB1.310" unicode="&#xff31;" 
d="M816 -6l-54 -56c-18 24 -29 36 -87 94c-56 -33 -107 -47 -176 -47c-210 0 -345 154 -345 394c0 241 136 396 346 396s345 -154 345 -394c0 -72 -12 -136 -36 -192c-19 -45 -36 -70 -80 -116c46 -45 59 -58 87 -79zM540 156l55 53c17 -19 30 -34 80 -84c31 33 42 50 56 82
c21 52 32 109 32 175c0 197 -102 323 -262 323c-161 0 -266 -128 -266 -325c0 -198 105 -325 269 -325c45 0 81 9 118 30c-34 33 -52 49 -82 71z" />
    <glyph glyph-name="GB1.311" unicode="&#xff32;" 
d="M826 0h-106c-3 30 -17 71 -59 171c-58 137 -97 176 -177 176h-185v-234c0 -51 2 -77 8 -113h-93c6 36 8 63 8 112v536c0 43 -2 75 -8 115c35 -2 63 -3 109 -3h220c145 0 225 -68 225 -192c0 -64 -19 -112 -60 -147c-29 -26 -54 -38 -108 -50c41 -12 66 -39 102 -110
c24 -47 48 -99 79 -168c17 -39 31 -69 45 -93zM299 416h237c45 0 86 16 113 43c26 25 38 58 38 101c0 85 -50 131 -145 131h-243v-275z" />
    <glyph glyph-name="GB1.312" unicode="&#xff33;" 
d="M766 575l-84 -12c-8 40 -16 60 -35 83c-32 38 -83 58 -148 58c-103 0 -175 -55 -175 -136c0 -52 28 -89 87 -113c27 -11 28 -11 143 -36c160 -34 224 -95 224 -211c0 -141 -97 -221 -269 -221c-112 0 -195 33 -241 95c-26 35 -37 66 -47 132l87 11c3 -48 10 -72 31 -99
c33 -44 93 -69 167 -69c119 0 191 56 191 149c0 49 -20 86 -58 107c-33 19 -44 22 -165 49c-63 13 -102 27 -136 46c-62 35 -93 88 -93 158c0 126 101 207 256 207c99 0 176 -32 221 -92c23 -30 33 -55 44 -106z" />
    <glyph glyph-name="GB1.313" unicode="&#xff34;" 
d="M538 690v-577c0 -49 2 -77 8 -113h-94c6 31 8 66 8 113v577h-156c-51 0 -82 -2 -115 -7v84c35 -5 61 -7 114 -7h390c58 0 85 2 118 7v-84c-33 5 -62 7 -118 7h-155z" />
    <glyph glyph-name="GB1.314" unicode="&#xff35;" 
d="M717 760h94c-6 -35 -8 -63 -8 -113v-371c0 -88 -27 -161 -77 -213c-50 -51 -130 -79 -227 -79c-98 0 -178 28 -228 81c-49 51 -74 123 -74 211v369c0 51 -2 80 -8 115h94c-6 -32 -8 -62 -8 -115v-366c0 -144 82 -226 225 -226c77 0 138 23 175 67c32 39 50 95 50 159v366
c0 50 -2 80 -8 115z" />
    <glyph glyph-name="GB1.315" unicode="&#xff36;" 
d="M287 658l190 -512c4 -11 14 -40 24 -70c10 31 16 49 23 70l188 512c18 47 26 76 29 102h104c-16 -27 -26 -51 -51 -116l-214 -551c-17 -44 -26 -72 -31 -93h-97c-4 21 -11 41 -32 93l-214 551c-22 58 -39 95 -51 116h103c6 -32 16 -65 29 -102z" />
    <glyph glyph-name="GB1.316" unicode="&#xff37;" 
d="M758 0h-77c-3 18 -12 54 -25 96l-127 427c-14 46 -21 77 -29 115c-9 -38 -23 -95 -29 -115l-127 -427c-15 -53 -21 -74 -24 -96h-77c-3 19 -3 19 -26 99l-154 548c-16 54 -25 81 -40 113h100c2 -32 7 -60 19 -104l114 -434c9 -35 18 -75 26 -113c13 57 20 82 29 114
l130 439c11 38 19 72 22 98h74c4 -29 11 -56 23 -98l130 -438c7 -24 11 -42 29 -115c5 21 7 27 10 43c5 25 14 63 16 72l115 432c10 40 17 76 18 104h99c-14 -31 -23 -58 -39 -113l-154 -548c-22 -80 -22 -80 -26 -99z" />
    <glyph glyph-name="GB1.317" unicode="&#xff38;" 
d="M498 348l-165 -246c-24 -37 -43 -69 -60 -102h-114c55 71 68 90 89 119l201 283l-177 250c-28 38 -51 69 -82 108h112c12 -27 29 -56 56 -95l143 -211l138 211c35 53 44 68 55 95h113c-28 -34 -53 -67 -83 -109l-176 -249l200 -281c19 -27 43 -59 92 -121h-115
c-29 50 -40 69 -62 101z" />
    <glyph glyph-name="GB1.318" unicode="&#xff39;" 
d="M547 0h-96c6 37 8 66 8 112v207l-230 354c-23 37 -40 61 -60 87h109c8 -24 18 -43 49 -92l173 -278l173 278c28 46 40 68 47 92h110c-15 -17 -35 -45 -61 -87l-230 -355v-206c0 -48 2 -76 8 -112z" />
    <glyph glyph-name="GB1.319" unicode="&#xff3a;" 
d="M803 77v-84c-39 5 -65 7 -117 7h-375c-60 0 -82 -1 -114 -3v71c20 19 39 41 73 85l379 497c10 12 22 26 37 43c-20 -2 -47 -3 -61 -3h-274c-52 0 -81 -2 -116 -7v84c34 -5 64 -7 116 -7h323c41 0 73 1 112 3v-69c-21 -20 -40 -43 -72 -85l-369 -484
c-14 -18 -27 -33 -48 -57c34 2 53 2 77 2h312c47 0 80 2 117 7z" />
    <glyph glyph-name="GB1.326" unicode="&#xff41;" 
d="M641 0v71c-39 -35 -58 -48 -92 -61s-70 -20 -104 -20c-110 0 -177 57 -177 152c0 80 50 138 143 164c59 17 107 23 230 26v58c0 68 -43 103 -126 103c-55 0 -96 -14 -124 -43c-13 -14 -21 -28 -31 -58l-78 17c18 46 31 67 56 89c41 38 101 57 176 57
c132 0 200 -56 200 -164v-281c0 -45 2 -70 8 -110h-81zM641 208v65c-119 -3 -176 -10 -221 -29c-51 -21 -76 -55 -76 -102c0 -55 41 -90 106 -90c58 0 121 28 160 70c23 25 31 47 31 86z" />
    <glyph glyph-name="GB1.327" unicode="&#xff42;" 
d="M328 0h-80c5 38 7 67 7 115v532c0 42 -2 74 -7 113h88c-5 -37 -7 -66 -7 -114v-135c0 -27 -1 -45 -4 -71c47 74 115 110 206 110c154 0 246 -104 246 -278c0 -176 -94 -282 -250 -282c-63 0 -109 16 -155 54c-22 17 -31 29 -47 52c2 -19 3 -27 3 -40v-56zM700 273
c0 135 -64 213 -175 213c-118 0 -196 -86 -196 -214c0 -129 78 -217 193 -217c112 0 178 81 178 218z" />
    <glyph glyph-name="GB1.328" unicode="&#xff43;" 
d="M738 397l-73 -23c-29 78 -77 115 -151 115c-110 0 -180 -86 -180 -220c0 -132 72 -216 184 -216c57 0 104 23 130 64c10 14 15 26 22 51l75 -20c-14 -36 -24 -55 -41 -77c-44 -55 -108 -84 -189 -84c-157 0 -258 109 -258 280c0 173 100 286 253 286
c83 0 150 -32 193 -92c14 -19 23 -35 35 -64z" />
    <glyph glyph-name="GB1.329" unicode="&#xff44;" 
d="M671 0v49c0 14 1 32 3 49c-47 -73 -112 -108 -203 -108c-154 0 -248 106 -248 280c0 171 96 280 246 280c91 0 161 -37 205 -106l-1 15c-3 21 -3 30 -3 53v134c0 47 -2 76 -7 114h88c-5 -40 -7 -69 -7 -113v-532c0 -50 2 -76 7 -115h-80zM477 485
c-109 0 -175 -80 -175 -213c0 -66 15 -123 41 -156c31 -39 78 -60 134 -60c117 0 192 85 192 217c0 66 -20 124 -56 159c-35 34 -83 53 -136 53z" />
    <glyph glyph-name="GB1.330" unicode="&#xff45;" 
d="M749 258h-421c3 -67 13 -104 40 -140c32 -44 81 -68 141 -68c81 0 137 40 165 116l70 -27c-19 -42 -32 -60 -55 -83c-47 -46 -108 -70 -181 -70c-157 0 -256 110 -256 283c0 171 98 283 248 283c129 0 222 -83 242 -217c1 -11 5 -50 7 -77zM331 321h338
c-6 56 -21 92 -53 123c-31 30 -70 45 -118 45c-61 0 -112 -31 -142 -87c-14 -25 -19 -43 -25 -81z" />
    <glyph glyph-name="GB1.331" unicode="&#xff46;" 
d="M435 475h-41c-35 0 -60 -2 -91 -6v76c27 -4 51 -6 91 -6h41v59c0 61 8 93 31 122c24 31 70 49 126 49c39 0 70 -6 106 -20l-21 -67c-27 16 -52 23 -83 23c-32 0 -55 -9 -68 -27c-11 -16 -15 -37 -15 -84v-55h50c43 0 69 1 106 6v-76c-34 5 -57 6 -106 6h-50v-363
c0 -47 2 -75 7 -112h-90c5 37 7 71 7 113v362z" />
    <glyph glyph-name="GB1.332" unicode="&#xff47;" 
d="M262 -26l65 41c40 -50 91 -73 165 -73c75 0 132 25 163 71c20 31 27 62 28 134c-42 -67 -109 -100 -199 -100c-152 0 -247 96 -247 249c0 152 100 252 251 252c89 0 156 -34 196 -98c-2 13 -3 26 -3 37v52h79c-5 -35 -7 -59 -7 -103v-301c0 -87 -18 -146 -56 -186
c-41 -43 -118 -68 -206 -68c-61 0 -112 12 -155 35c-26 14 -42 27 -74 58zM315 296c0 -115 66 -186 173 -186c113 0 190 77 190 191c0 112 -72 185 -184 185c-110 0 -179 -73 -179 -190z" />
    <glyph glyph-name="GB1.333" unicode="&#xff48;" 
d="M351 0h-89c5 36 7 63 7 113v534c0 50 -2 76 -7 113h89c-6 -37 -8 -63 -8 -114v-169c0 -16 0 -24 -3 -50c20 33 31 48 55 68c43 37 89 54 150 54c117 0 187 -69 187 -186v-251c0 -46 2 -75 7 -112h-90c5 33 7 63 7 113v236c0 87 -43 134 -121 134c-56 0 -102 -24 -141 -73
c-28 -36 -41 -63 -50 -105v-192c0 -44 2 -74 7 -113z" />
    <glyph glyph-name="GB1.334" unicode="&#xff49;" 
d="M452 760h97v-89h-97v89zM455 539h90c-5 -35 -7 -63 -7 -113v-313c0 -46 2 -74 7 -113h-90c5 43 7 71 7 113v313c0 48 -2 78 -7 113z" />
    <glyph glyph-name="GB1.335" unicode="&#xff4a;" 
d="M480 760h97v-90h-97v90zM483 539h90c-5 -35 -7 -64 -7 -113v-393c0 -107 -45 -153 -149 -153c-64 0 -104 19 -149 73l69 45c26 -38 48 -52 84 -52c25 0 43 7 54 21c11 15 15 33 15 72v387c0 49 -2 78 -7 113z" />
    <glyph glyph-name="GB1.336" unicode="&#xff4b;" 
d="M284 760h89c-5 -36 -7 -62 -7 -113v-362l181 175c43 41 57 58 71 79h119c-14 -13 -14 -13 -41 -37c-10 -9 -22 -20 -36 -34c-9 -8 -14 -14 -16 -16l-139 -129l169 -218c60 -77 65 -83 87 -105h-114c-11 24 -13 28 -63 95l-133 182l-85 -81v-84c0 -45 2 -77 7 -112h-89
c5 36 7 65 7 113v534c0 50 -2 77 -7 113z" />
    <glyph glyph-name="GB1.337" unicode="&#xff4c;" 
d="M455 760h90c-5 -36 -7 -63 -7 -113v-535c0 -45 2 -72 7 -112h-90c5 36 7 67 7 112v536c0 49 -2 76 -7 112z" />
    <glyph glyph-name="GB1.338" unicode="&#xff4d;" 
d="M193 0h-88c5 36 7 66 7 113v313c0 50 -2 77 -7 113h81v-55c0 -5 -1 -17 -2 -36c9 17 18 29 38 50c34 34 83 52 141 52c57 0 99 -17 129 -51c15 -16 21 -28 31 -58c47 77 101 109 185 109c66 0 116 -21 146 -61c24 -32 34 -71 34 -130v-247c0 -50 2 -77 7 -112h-90
c6 37 7 60 7 113v236c0 95 -35 136 -115 136c-50 0 -97 -27 -126 -73c-19 -29 -33 -73 -33 -103v-197c0 -50 2 -78 7 -112h-90c5 36 7 62 7 113v236c0 88 -40 136 -112 136c-52 0 -100 -28 -131 -76c-18 -27 -33 -74 -33 -100v-196c0 -46 2 -73 7 -113z" />
    <glyph glyph-name="GB1.339" unicode="&#xff4e;" 
d="M352 0h-90c6 38 8 65 8 113v313c0 45 -2 73 -8 113h83v-68c0 -12 0 -20 -3 -43c47 82 112 121 202 121c72 0 128 -26 160 -75c19 -29 28 -66 28 -115v-247c0 -51 2 -79 7 -112h-90c5 39 7 69 7 113v233c0 90 -43 138 -122 138c-56 0 -101 -25 -143 -79
c-26 -34 -38 -59 -46 -99v-193c0 -44 2 -74 7 -113z" />
    <glyph glyph-name="GB1.340" unicode="&#xff4f;" 
d="M501 -13c-164 0 -268 109 -268 282s104 283 267 283s266 -110 266 -282c0 -171 -104 -283 -265 -283zM502 489c-119 0 -192 -83 -192 -218c0 -136 73 -219 190 -219s189 83 189 218s-72 219 -187 219z" />
    <glyph glyph-name="GB1.341" unicode="&#xff50;" 
d="M344 539v-52c0 -12 -1 -25 -3 -40c42 66 116 102 206 102c152 0 246 -98 246 -256c0 -159 -95 -258 -247 -258c-89 0 -162 36 -205 100c3 -32 4 -42 4 -66v-84c0 -43 2 -70 7 -104h-88c5 36 7 65 7 103v449c0 45 -2 72 -7 106h80zM716 293c0 120 -67 193 -176 193
c-114 0 -193 -79 -193 -192c0 -119 75 -196 192 -196c109 0 177 75 177 195z" />
    <glyph glyph-name="GB1.342" unicode="&#xff51;" 
d="M672 539h80c-5 -36 -7 -59 -7 -106v-449c0 -39 2 -67 7 -103h-88c5 35 7 62 7 104v85c0 25 1 36 4 65c-46 -66 -116 -100 -205 -100c-151 0 -247 100 -247 256c0 158 96 258 248 258c92 0 158 -33 204 -102c-2 14 -3 26 -3 38v54zM300 293c0 -119 68 -194 177 -194
c116 0 192 78 192 198c0 112 -78 189 -191 189c-109 0 -178 -75 -178 -193z" />
    <glyph glyph-name="GB1.343" unicode="&#xff52;" 
d="M702 539l-22 -77c-38 12 -56 15 -81 15c-51 0 -93 -21 -123 -61c-24 -31 -33 -55 -37 -100v-204c0 -45 2 -73 7 -112h-90c5 46 7 72 7 113v313c0 50 -2 77 -7 113h83v-57c0 -8 0 -23 -1 -30c19 31 34 47 55 61c38 25 72 35 120 35c30 0 47 -2 89 -9z" />
    <glyph glyph-name="GB1.344" unicode="&#xff53;" 
d="M274 146l82 14c7 -37 15 -55 35 -73c25 -23 65 -35 116 -35c87 0 142 37 142 96c0 28 -10 49 -31 62c-24 15 -44 21 -118 36c-80 17 -114 29 -148 52c-35 24 -54 61 -54 105c0 36 15 70 43 97c35 34 89 52 156 52c68 0 121 -16 157 -48c26 -22 40 -45 53 -91l-79 -13
c-6 27 -11 39 -25 53c-23 25 -59 38 -104 38c-73 0 -125 -37 -125 -90c0 -23 12 -43 34 -55c23 -13 49 -21 111 -34c97 -22 129 -34 159 -57c31 -25 48 -63 48 -104c0 -100 -85 -162 -222 -162c-91 0 -161 27 -198 78c-15 21 -22 38 -32 79z" />
    <glyph glyph-name="GB1.345" unicode="&#xff54;" 
d="M438 687h90c-5 -32 -7 -68 -7 -110v-38h48c46 0 67 1 102 6v-76c-32 5 -57 6 -102 6h-48v-348c0 -29 4 -44 13 -53c11 -11 28 -17 49 -17c26 0 46 6 79 26l22 -70c-41 -17 -72 -23 -113 -23c-44 0 -78 11 -98 31s-28 48 -28 96v358h-40c-34 0 -57 -2 -90 -6v76
c28 -5 48 -6 90 -6h40v38c0 39 -2 78 -7 110z" />
    <glyph glyph-name="GB1.346" unicode="&#xff55;" 
d="M655 0v65c0 11 0 18 3 44c-50 -83 -112 -120 -202 -120c-72 0 -128 26 -160 75c-18 29 -28 68 -28 116v247c0 45 -2 80 -7 112h90c-5 -35 -7 -69 -7 -113v-233c0 -89 43 -139 121 -139c57 0 104 25 144 79c26 35 37 60 46 100v193c0 43 -2 78 -7 113h89
c-5 -35 -7 -67 -7 -113v-313c0 -45 2 -73 8 -113h-83z" />
    <glyph glyph-name="GB1.347" unicode="&#xff56;" 
d="M239 539h94c5 -26 15 -59 31 -98l114 -294c5 -13 16 -45 22 -65c8 25 14 42 23 64l114 295c18 45 25 70 30 98h94c-13 -24 -16 -32 -49 -110l-140 -337c-22 -55 -25 -61 -32 -92h-79c-6 25 -13 43 -33 92l-139 337c-19 44 -29 66 -50 110z" />
    <glyph glyph-name="GB1.348" unicode="&#xff57;" 
d="M706 0h-69c-4 21 -11 47 -20 75l-98 291c-2 5 -7 26 -17 63c-8 -28 -16 -55 -19 -65l-97 -289c-10 -29 -18 -58 -21 -75h-70c-6 25 -6 27 -22 76l-107 345c-12 37 -28 84 -40 118h92c2 -31 9 -65 23 -109l73 -249c5 -17 11 -38 18 -73c6 23 18 63 21 72l95 283
c11 30 18 58 20 76h67c3 -18 10 -46 20 -76l96 -288c3 -9 9 -31 13 -45c4 -15 4 -15 6 -22c9 39 14 62 16 68l75 254c13 43 20 80 22 109h91c-8 -21 -21 -61 -39 -118l-108 -346c-13 -40 -17 -55 -21 -75z" />
    <glyph glyph-name="GB1.349" unicode="&#xff58;" 
d="M750 0h-99c-14 26 -24 42 -45 74l-106 153l-111 -162c-16 -22 -24 -37 -39 -65h-99c16 20 43 55 65 87l139 192l-129 180c-6 9 -14 19 -60 80h98c10 -23 20 -40 39 -67l98 -141l97 141c17 25 30 47 39 67h96c-23 -32 -44 -59 -61 -83l-126 -177l132 -184
c10 -13 10 -13 72 -95z" />
    <glyph glyph-name="GB1.350" unicode="&#xff59;" 
d="M478 47l-183 382c-43 91 -43 91 -54 110h99c4 -26 17 -63 33 -99l144 -313l128 312c20 48 29 75 33 100h94c-7 -15 -24 -52 -50 -110l-197 -452c-19 -44 -37 -65 -66 -80c-22 -11 -49 -16 -84 -16c-33 0 -51 3 -88 13l23 72c33 -15 50 -20 68 -20c36 0 60 17 77 52z" />
    <glyph glyph-name="GB1.351" unicode="&#xff5a;" 
d="M698 542v-60c-25 -27 -42 -48 -67 -82l-215 -287c-2 -2 -17 -21 -38 -47c49 2 52 2 69 2h158c52 0 80 2 113 7v-82c-36 5 -62 7 -113 7h-212c-62 0 -83 -1 -111 -3v66c22 23 42 46 68 81l220 294c11 15 18 23 30 36c-27 -2 -36 -2 -50 -2h-136c-42 0 -74 -2 -112 -7v81
c39 -5 68 -7 112 -7h178c62 0 78 0 106 3z" />
    <glyph glyph-name="GB1.525" unicode="&#x391;" 
d="M861 0h-103c-8 36 -19 71 -31 102l-52 129h-349l-52 -129c-15 -38 -24 -67 -31 -102h-104c20 33 27 48 54 115l224 552c19 47 27 70 32 93h101c4 -19 9 -32 34 -93l224 -552c25 -60 38 -89 53 -115zM651 300l-129 330c-3 8 -3 9 -22 64c-5 -15 -9 -26 -11 -33
c-6 -16 -9 -27 -11 -31l-128 -330h301z" />
    <glyph glyph-name="GB1.526" unicode="&#x392;" 
d="M555 0h-224c-44 0 -75 -1 -110 -3c7 40 9 66 9 124v535c0 43 -2 70 -8 106c31 -2 51 -2 109 -2h213c145 0 226 -66 226 -184c0 -58 -18 -102 -54 -134c-21 -18 -39 -27 -79 -40c46 -9 70 -19 97 -42c41 -35 62 -86 62 -150c0 -134 -88 -210 -241 -210zM307 434h236
c93 0 148 49 148 133c0 83 -50 125 -149 125h-235v-258zM307 366v-298h241c109 0 167 52 167 148c0 99 -58 150 -169 150h-239z" />
    <glyph glyph-name="GB1.527" unicode="&#x393;" 
d="M373 689v-572c0 -55 2 -83 8 -117h-95c6 34 8 65 8 116v533c0 43 -2 71 -8 114c35 -2 62 -3 109 -3h266c49 0 77 2 115 7v-85c-34 5 -60 7 -114 7h-289z" />
    <glyph glyph-name="GB1.528" unicode="&#x394;" 
d="M581 667l214 -552c27 -70 37 -94 51 -117c-30 1 -60 2 -101 2h-489c-35 0 -77 -1 -102 -2c15 25 28 53 53 117l214 552c16 40 28 77 32 93h97c5 -23 13 -47 31 -93zM274 70h453l-203 548c-7 20 -13 38 -22 67c-3 -10 -11 -32 -23 -67z" />
    <glyph glyph-name="GB1.529" unicode="&#x395;" 
d="M770 77v-84c-32 5 -59 7 -112 7h-293c-48 0 -76 -1 -110 -3c6 38 8 68 8 119v533c0 43 -2 70 -8 114c35 -2 62 -3 110 -3h285c44 0 78 2 112 7v-84c-35 5 -62 7 -112 7h-308v-256h263c44 0 74 2 112 7v-84c-34 5 -60 7 -112 7h-263v-294h317c46 0 74 2 111 7z" />
    <glyph glyph-name="GB1.530" unicode="&#x396;" 
d="M803 77v-84c-39 5 -65 7 -117 7h-375c-60 0 -82 -1 -114 -3v71c20 19 39 41 73 85l379 497c10 12 22 26 37 43c-20 -2 -47 -3 -61 -3h-274c-52 0 -81 -2 -116 -7v84c34 -5 64 -7 116 -7h323c41 0 73 1 112 3v-69c-21 -20 -40 -43 -72 -85l-369 -484
c-14 -18 -27 -33 -48 -57c34 2 53 2 77 2h312c47 0 80 2 117 7z" />
    <glyph glyph-name="GB1.531" unicode="&#x397;" 
d="M718 760h94c-6 -38 -8 -63 -8 -110v-538c0 -49 2 -73 8 -112h-94c6 37 8 64 8 112v253h-452v-253c0 -50 2 -76 8 -112h-94c6 34 8 63 8 112v536c0 48 -2 77 -8 112h94c-6 -37 -8 -63 -8 -110v-214h452v212c0 47 -2 78 -8 112z" />
    <glyph glyph-name="GB1.532" unicode="&#x398;" 
d="M706 429v-87c-32 6 -53 7 -104 7h-207c-47 0 -73 -2 -103 -7v87c30 -5 56 -7 104 -7h207c48 0 74 2 103 7zM500 775c211 0 345 -154 345 -395s-135 -395 -346 -395s-345 154 -345 395c0 240 136 395 346 395zM501 56c69 0 128 23 173 68c57 56 89 149 89 256
c0 110 -30 198 -88 256c-46 45 -106 69 -175 69c-160 0 -265 -128 -265 -324s106 -325 266 -325z" />
    <glyph glyph-name="GB1.533" unicode="&#x399;" 
d="M453 760h95c-6 -33 -9 -70 -9 -112v-536c0 -44 3 -78 9 -112h-95c6 37 8 62 8 112v536c0 50 -2 76 -8 112z" />
    <glyph glyph-name="GB1.534" unicode="&#x39a;" 
d="M479 442l262 -333c57 -72 67 -83 94 -109h-116c-14 25 -31 51 -59 86l-236 304l-117 -115v-163c0 -50 2 -77 8 -112h-93c6 32 8 66 8 112v536c0 46 -2 75 -8 112h93c-6 -32 -8 -63 -8 -112v-277l304 306c38 38 55 58 69 83h118c-18 -17 -18 -17 -26 -25
c-16 -16 -31 -30 -44 -44c-18 -19 -30 -31 -33 -34z" />
    <glyph glyph-name="GB1.535" unicode="&#x39b;" 
d="M845 0h-104c-4 27 -15 63 -29 102l-188 512c-7 21 -14 41 -23 70c-12 -37 -19 -57 -24 -70l-190 -512c-12 -35 -22 -70 -29 -102h-103c15 26 27 53 51 116l214 551c21 53 28 73 32 93h97c5 -21 14 -49 31 -93l214 -551c20 -54 33 -82 51 -116z" />
    <glyph glyph-name="GB1.536" unicode="&#x39c;" 
d="M426 105l-201 446c-15 32 -26 63 -45 124c3 -43 7 -105 7 -129v-428c0 -53 2 -84 8 -118h-91c6 37 8 66 8 118v523c0 50 -2 82 -8 119h116c6 -30 18 -66 33 -99l247 -551l246 551c17 39 28 70 34 99h115c-6 -38 -8 -67 -8 -119v-523c0 -55 2 -82 8 -118h-91
c6 34 8 70 8 118v434c0 28 3 82 7 123c-10 -41 -24 -81 -43 -122l-204 -449c-20 -45 -30 -71 -38 -104h-71c-5 26 -17 60 -37 105z" />
    <glyph glyph-name="GB1.537" unicode="&#x39d;" 
d="M192 760h105c9 -23 22 -45 51 -90l316 -473c11 -17 41 -66 65 -109c-4 80 -6 124 -6 133v424c0 49 -2 80 -8 115h93c-6 -36 -8 -64 -8 -115v-533c0 -50 2 -80 8 -112h-109c-14 29 -25 49 -52 90l-321 482c-8 12 -41 69 -55 96c4 -47 6 -96 6 -122v-427
c0 -53 2 -86 8 -119h-93c6 32 8 67 8 119v529c0 46 -2 76 -8 112z" />
    <glyph glyph-name="GB1.538" unicode="&#x39e;" 
d="M792 767v-83c-35 5 -59 7 -112 7h-362c-53 0 -78 -2 -112 -7v83c33 -5 60 -7 112 -7h362c52 0 79 2 112 7zM193 -7v84c38 -5 65 -7 112 -7h389c47 0 73 2 112 7v-84c-39 5 -68 7 -112 7h-389c-44 0 -73 -2 -112 -7zM755 427v-83c-34 5 -60 7 -112 7h-287
c-52 0 -78 -2 -112 -7v83c34 -5 62 -7 112 -7h287c50 0 79 2 112 7z" />
    <glyph glyph-name="GB1.539" unicode="&#x39f;" 
d="M500 775c211 0 345 -154 345 -395s-135 -395 -346 -395s-345 154 -345 395c0 240 136 395 346 395zM501 56c69 0 128 23 173 68c57 56 89 149 89 256c0 110 -30 198 -88 256c-46 45 -106 69 -175 69c-160 0 -265 -128 -265 -324s106 -325 266 -325z" />
    <glyph glyph-name="GB1.540" unicode="&#x3a0;" 
d="M708 690h-418v-578c0 -50 2 -77 8 -112h-93c6 36 8 64 8 112v537c0 43 -2 74 -8 114c35 -2 61 -3 109 -3h370c48 0 75 1 110 3c-6 -42 -8 -72 -8 -114v-537c0 -50 2 -77 8 -112h-94c6 36 8 63 8 112v578z" />
    <glyph glyph-name="GB1.541" unicode="&#x3a1;" 
d="M340 0h-94c6 36 8 65 8 112v537c0 41 -2 72 -8 114c36 -2 64 -3 110 -3h204c154 0 241 -79 241 -218c0 -147 -90 -232 -246 -232h-223v-197c0 -48 2 -79 8 -113zM332 379h223c106 0 166 57 166 159c0 100 -58 153 -166 153h-223v-312z" />
    <glyph glyph-name="GB1.542" unicode="&#x3a3;" 
d="M537 403l-242 209c-12 11 -24 21 -35 31c-25 22 -30 27 -50 42v78c38 -2 72 -3 112 -3h342c50 0 80 2 112 7v-84c-36 5 -61 7 -112 7h-295c-20 0 -38 1 -58 3c6 -5 6 -5 19 -16c2 -2 5 -5 11 -9c5 -4 9 -7 11 -9l295 -256l-309 -295c-17 -17 -24 -24 -43 -40
c34 1 55 2 71 2h315c45 0 74 2 112 7v-84c-39 5 -66 7 -112 7h-380c-59 0 -78 -1 -114 -3v73c24 21 24 21 80 74z" />
    <glyph glyph-name="GB1.543" unicode="&#x3a4;" 
d="M538 690v-577c0 -49 2 -77 8 -113h-94c6 31 8 66 8 113v577h-156c-51 0 -82 -2 -115 -7v84c35 -5 61 -7 114 -7h390c58 0 85 2 118 7v-84c-33 5 -62 7 -118 7h-155z" />
    <glyph glyph-name="GB1.544" unicode="&#x3a5;" 
d="M912 731l-45 -72c-23 27 -53 39 -95 39c-86 0 -154 -62 -200 -181c-24 -62 -33 -121 -33 -206v-199c0 -47 2 -78 8 -112h-94c6 34 8 66 8 112v198c0 130 -29 232 -88 309c-41 53 -86 77 -145 77c-43 0 -71 -11 -95 -39l-45 73c42 32 79 44 136 44c85 0 153 -36 206 -109
c41 -57 61 -111 71 -195c8 60 17 95 38 139c51 109 134 166 239 166c54 0 94 -13 134 -44z" />
    <glyph glyph-name="GB1.545" unicode="&#x3a6;" 
d="M546 0h-93c7 39 8 58 8 109c-90 5 -131 13 -183 35c-103 44 -157 128 -157 243s54 198 156 243c52 23 87 30 184 36c0 41 -2 61 -8 94h93c-5 -29 -7 -54 -8 -94c98 -6 134 -13 185 -35c104 -46 157 -128 157 -244c0 -115 -54 -199 -156 -243c-52 -23 -91 -31 -186 -36
c1 -53 2 -73 8 -108zM462 178v418c-73 -3 -109 -9 -149 -26c-75 -32 -113 -94 -113 -183s38 -150 113 -182c40 -18 76 -24 149 -27zM537 596v-418c79 4 111 9 151 26c75 33 113 94 113 183c0 90 -38 151 -113 183c-40 17 -70 22 -151 26z" />
    <glyph glyph-name="GB1.546" unicode="&#x3a7;" 
d="M498 348l-165 -246c-24 -37 -43 -69 -60 -102h-114c55 71 68 90 89 119l201 283l-177 250c-28 38 -51 69 -82 108h112c12 -27 29 -56 56 -95l143 -211l138 211c35 53 44 68 55 95h113c-28 -34 -53 -67 -83 -109l-176 -249l200 -281c19 -27 43 -59 92 -121h-115
c-29 50 -40 69 -62 101z" />
    <glyph glyph-name="GB1.547" unicode="&#x3a8;" 
d="M537 655v-417c80 2 97 5 124 21c37 22 61 66 67 123l21 195c3 27 15 66 27 88c19 35 58 53 117 53c11 0 17 0 32 -2l-2 -75c-11 1 -22 2 -29 2c-42 0 -63 -25 -69 -84l-21 -185c-10 -90 -50 -153 -115 -181c-39 -17 -55 -20 -152 -23v-65c0 -47 2 -71 8 -105h-93
c6 35 8 61 8 105v66c-102 3 -111 5 -150 22c-66 28 -105 90 -115 181l-21 185c-3 29 -13 56 -24 67c-11 10 -26 16 -45 16c-8 0 -18 0 -29 -1l-2 75c10 2 19 3 23 3c16 0 43 -3 62 -7c51 -11 82 -58 91 -135l20 -195c6 -56 31 -101 67 -123c27 -15 48 -19 123 -21v416
c0 45 -2 73 -8 106h93c-6 -33 -8 -59 -8 -105z" />
    <glyph glyph-name="GB1.548" unicode="&#x3a9;" 
d="M545 -3v63c51 17 72 27 101 51c77 65 118 162 118 281c0 189 -105 314 -265 314c-159 0 -264 -125 -264 -314c0 -118 41 -216 118 -280c29 -25 50 -35 101 -52v-63c-37 2 -68 3 -111 3h-119c-49 0 -78 -2 -112 -7v82c35 -5 67 -7 107 -7h100c-41 26 -57 41 -80 70
c-56 70 -84 159 -84 262c0 116 37 218 104 284c60 60 143 92 241 92c210 0 345 -147 345 -376c0 -105 -29 -194 -88 -265c-22 -28 -38 -41 -77 -67h101c40 0 71 2 107 7v-82c-34 5 -64 7 -112 7h-120c-43 0 -74 -1 -111 -3z" />
    <glyph glyph-name="GB1.549" unicode="&#x3b1;" 
d="M787 432l-114 -216c-1 -32 -1 -45 -1 -52c0 -86 10 -110 44 -110c25 0 46 13 65 39l33 -54c-35 -36 -64 -49 -107 -49c-37 0 -63 12 -80 38c-13 21 -17 43 -19 90c-28 -45 -44 -64 -70 -84c-40 -31 -90 -48 -145 -48c-123 0 -202 88 -202 225c0 190 134 339 304 339
c70 0 122 -24 149 -67c16 -26 22 -60 22 -116v-26l51 101c19 36 31 66 40 97h89c-21 -36 -40 -71 -59 -107zM601 221c2 32 3 80 3 119c0 53 -7 87 -23 108c-19 26 -49 39 -89 39c-122 0 -223 -126 -223 -280c0 -96 52 -156 135 -156c47 0 89 20 125 59c12 13 27 33 41 56
c9 15 31 53 31 55z" />
    <glyph glyph-name="GB1.550" unicode="&#x3b2;" 
d="M294 103l-32 -114c-15 -56 -19 -77 -22 -108h-92c13 30 23 57 38 111l130 472c30 109 64 185 104 232c43 51 102 76 176 76c115 0 192 -67 192 -169c0 -54 -19 -104 -53 -141c-31 -33 -61 -47 -124 -62c40 -9 63 -22 90 -49c34 -35 51 -78 51 -128
c0 -138 -100 -233 -245 -233c-53 0 -95 11 -134 36c-37 23 -55 41 -79 77zM385 445l-71 -264c16 -32 25 -46 44 -64c41 -41 92 -62 148 -62c98 0 168 70 168 168c0 56 -23 96 -71 124c-29 17 -60 25 -96 25c-22 0 -37 -1 -61 -5l20 76c21 -4 36 -5 56 -5c63 0 111 16 144 48
c30 30 48 70 48 111c0 66 -49 111 -121 111c-98 0 -157 -74 -208 -263z" />
    <glyph glyph-name="GB1.551" unicode="&#x3b3;" 
d="M821 544l-21 -75c-12 1 -24 1 -34 1c-61 0 -119 -24 -169 -69c-93 -84 -165 -197 -195 -306l-30 -106c-14 -51 -19 -73 -22 -108h-93c13 26 21 50 38 112l70 249c17 61 26 116 26 158c0 54 -15 82 -44 82h-2c-21 -1 -46 -16 -72 -44l-38 58c44 37 84 55 120 55
c70 0 102 -42 102 -131c0 -34 -3 -60 -13 -113c54 85 86 121 140 165c65 51 129 72 222 72h15z" />
    <glyph glyph-name="GB1.552" unicode="&#x3b4;" 
d="M780 761l-21 -70c-61 14 -112 20 -167 20c-15 0 -22 -2 -22 -8c0 -4 4 -10 27 -35c90 -99 146 -225 146 -327c0 -76 -25 -162 -65 -226c-52 -81 -143 -128 -247 -128c-140 0 -228 89 -228 231c0 188 130 330 302 330c50 0 83 -9 120 -33c-23 50 -53 92 -122 169
c-13 14 -20 29 -20 40c0 15 10 29 26 36c19 9 43 12 93 12c65 0 112 -3 178 -11zM511 485c-79 0 -146 -40 -189 -112c-27 -45 -42 -100 -42 -152c0 -107 56 -169 154 -169c67 0 125 29 167 82c40 52 63 122 63 191c0 99 -59 160 -153 160z" />
    <glyph glyph-name="GB1.553" unicode="&#x3b5;" 
d="M735 462l-62 -39c-28 47 -68 66 -139 66c-87 0 -146 -41 -146 -102c0 -22 9 -42 23 -54c15 -13 33 -17 68 -17c48 0 84 2 114 7l-21 -78c-31 5 -65 7 -103 7c-47 0 -75 -8 -100 -30c-23 -20 -37 -49 -37 -78c0 -58 47 -93 126 -93c74 0 131 26 168 76l67 -33
c-23 -31 -37 -45 -60 -61c-45 -30 -103 -46 -171 -46c-65 0 -122 15 -153 40c-35 27 -53 65 -53 110s17 85 49 113c19 17 36 26 73 39c-43 19 -64 53 -64 103c0 94 92 160 225 160c94 0 154 -28 196 -90z" />
    <glyph glyph-name="GB1.554" unicode="&#x3b6;" 
d="M631 -119h-98c36 26 70 75 70 101c0 13 -10 18 -34 18h-165c-107 0 -173 66 -173 173c0 150 111 319 289 441c-32 -8 -57 -12 -84 -12c-58 0 -93 31 -93 82c0 32 12 57 44 85l64 -29c-22 -14 -32 -30 -32 -50c0 -18 16 -30 41 -30c47 0 117 19 196 53c35 15 61 27 119 57
l32 -66c-128 -55 -180 -84 -255 -143c-148 -116 -242 -264 -242 -381c0 -78 35 -111 117 -111h164c62 0 94 -23 94 -68c0 -35 -19 -79 -54 -120z" />
    <glyph glyph-name="GB1.555" unicode="&#x3b7;" 
d="M287 0h-93c15 30 21 49 38 112l82 302c3 11 5 21 5 31c0 24 -13 39 -34 39c-20 0 -40 -9 -73 -33l-29 62c48 26 82 37 120 37c53 0 83 -28 83 -78c0 -11 -2 -22 -6 -42c27 34 36 44 59 61c56 42 106 60 169 60c100 0 160 -50 160 -132c0 -21 -3 -43 -9 -65l-99 -363
c-15 -57 -20 -78 -22 -110h-93c12 27 23 60 38 111l94 346c6 24 10 48 10 70c0 53 -33 79 -100 79c-52 0 -104 -26 -153 -74c-37 -37 -66 -81 -75 -116l-50 -185c-16 -61 -19 -77 -22 -112z" />
    <glyph glyph-name="GB1.556" unicode="&#x3b8;" 
d="M563 773c121 0 188 -94 188 -265c0 -133 -33 -268 -90 -371c-52 -96 -131 -149 -221 -149c-122 0 -190 94 -190 265c0 127 32 263 87 367c36 67 92 120 149 140c25 9 51 13 77 13zM344 429h326c7 55 8 69 8 91c0 123 -43 189 -122 189c-45 0 -90 -27 -125 -73
c-39 -54 -63 -111 -87 -207zM660 364h-327c-6 -49 -9 -79 -9 -108c0 -64 11 -114 33 -153c18 -34 48 -51 87 -51c97 0 178 116 216 312z" />
    <glyph glyph-name="GB1.557" unicode="&#x3b9;" 
d="M580 112l34 -64c-52 -44 -93 -60 -152 -60c-65 0 -99 31 -99 91c0 15 3 34 8 54l79 293c16 59 20 76 23 113h94c-13 -27 -21 -51 -38 -113l-80 -292c-4 -14 -6 -28 -6 -40c0 -25 13 -38 38 -38c34 0 65 18 99 56z" />
    <glyph glyph-name="GB1.558" unicode="&#x3ba;" 
d="M380 327h16c26 0 54 8 76 24c19 14 19 14 132 132c40 42 75 60 114 60c24 0 31 0 62 -4l-22 -66c-9 2 -22 3 -30 3c-25 0 -37 -6 -60 -29c-136 -136 -151 -147 -204 -153c27 -4 41 -11 56 -28c9 -10 16 -22 24 -39c3 -6 3 -6 47 -130c11 -32 20 -41 41 -41
c20 0 39 12 56 33l31 -62c-29 -27 -60 -39 -98 -39c-37 0 -66 15 -81 41c-10 18 -10 18 -51 145c-11 36 -18 52 -29 64c-12 15 -30 22 -54 22h-44l-39 -147c-16 -58 -20 -76 -23 -113h-92c14 31 21 52 38 114l86 317c15 54 18 71 22 108h91c-13 -27 -20 -50 -36 -108z" />
    <glyph glyph-name="GB1.559" unicode="&#x3bb;" 
d="M524 572l-6 66c-4 46 -15 63 -41 63s-52 -16 -89 -55l-36 63c51 43 93 62 142 62c61 0 88 -32 95 -114l48 -545c2 -31 13 -44 38 -44c27 0 52 15 71 40l35 -66c-39 -34 -71 -47 -116 -47c-63 0 -97 33 -102 101l-29 368l-229 -364c-31 -51 -43 -71 -53 -100h-109
c22 25 46 57 70 95z" />
    <glyph glyph-name="GB1.560" unicode="&#x3bc;" 
d="M788 98l33 -57c-39 -35 -75 -50 -118 -50c-53 0 -86 31 -86 80c0 7 1 16 4 31c-38 -71 -108 -111 -193 -111c-77 0 -124 35 -143 105l-30 -113c-13 -47 -18 -71 -20 -102h-93c12 27 25 65 38 112l118 434c16 62 20 81 22 112h93c-14 -32 -25 -66 -38 -112l-47 -171
c-7 -27 -10 -51 -10 -75c0 -78 44 -124 120 -124c46 0 90 20 130 60c29 29 48 66 64 124l49 186c16 59 20 77 23 112h93c-14 -29 -20 -47 -38 -112l-80 -293c-4 -12 -6 -23 -6 -33c0 -27 17 -44 44 -44s47 12 71 41z" />
    <glyph glyph-name="GB1.561" unicode="&#x3bd;" 
d="M360 0h-78c9 25 18 56 31 111c41 170 59 262 59 309c0 45 -15 65 -49 65c-20 0 -46 -11 -75 -31l-30 61c46 26 80 36 120 36c72 0 104 -37 104 -120c0 -65 -5 -93 -49 -273c-9 -35 -14 -55 -21 -76l30 21c52 36 103 76 132 105c60 57 106 129 138 214c14 36 21 60 35 117
h83c-24 -92 -39 -135 -63 -188c-48 -103 -119 -187 -216 -255c-26 -18 -35 -23 -86 -53c-25 -15 -40 -25 -65 -43z" />
    <glyph glyph-name="GB1.562" unicode="&#x3be;" 
d="M640 -119h-98c36 27 68 74 68 101c0 13 -9 18 -31 18h-185c-77 0 -121 13 -147 43c-16 19 -26 46 -26 74c0 61 32 128 85 179c36 35 72 57 136 84c-34 1 -54 7 -71 22c-16 15 -27 39 -27 59c0 43 22 89 57 119c20 19 39 31 77 48c-18 -3 -32 -4 -44 -4
c-54 0 -84 24 -84 68c0 32 18 60 52 82l58 -33c-24 -12 -35 -25 -35 -41c0 -15 16 -24 42 -24c30 0 65 7 119 22c80 24 104 32 199 72l20 -71c-158 -46 -271 -93 -328 -137c-35 -27 -53 -55 -53 -85c0 -36 30 -55 86 -55c35 0 44 2 145 24l10 -73c-87 -10 -130 -20 -176 -38
c-115 -46 -188 -125 -188 -203c0 -45 31 -64 101 -64h197c64 0 93 -22 93 -70c0 -32 -19 -76 -52 -117z" />
    <glyph glyph-name="GB1.563" unicode="&#x3bf;" 
d="M542 551c140 0 228 -89 228 -231c0 -85 -31 -172 -84 -233c-56 -64 -137 -100 -227 -100c-139 0 -228 89 -228 230c0 103 43 202 114 264c52 45 123 70 197 70zM541 487c-74 0 -136 -34 -180 -101c-33 -49 -52 -113 -52 -175c0 -99 58 -160 154 -160c71 0 136 37 178 101
c33 51 52 115 52 177c0 97 -58 158 -152 158z" />
    <glyph glyph-name="GB1.564" unicode="&#x3c0;" 
d="M716 103l27 -62c-47 -39 -86 -54 -138 -54c-63 0 -98 33 -98 90c0 17 2 35 7 53l92 343h-154l-122 -364c-16 -48 -22 -72 -29 -109h-91c15 28 26 55 44 108l121 365c-48 0 -71 -6 -95 -23c-20 -15 -31 -29 -47 -61l-49 48c26 43 45 62 79 80c29 14 64 22 104 22h343
c55 0 80 2 115 7l-21 -80c-32 5 -57 7 -100 7h-22l-92 -339c-5 -17 -7 -33 -7 -46c0 -20 15 -32 40 -32c30 0 57 14 93 47z" />
    <glyph glyph-name="GB1.565" unicode="&#x3c1;" 
d="M316 133l-38 -142c-14 -52 -18 -75 -20 -110h-94c14 32 22 57 37 112l84 302c48 174 143 257 296 257c67 0 126 -25 164 -70c36 -40 56 -96 56 -153c0 -203 -111 -335 -283 -335c-70 0 -125 23 -165 69c-18 20 -26 35 -37 70zM572 488c-72 0 -135 -37 -172 -103
c-27 -47 -44 -105 -44 -153c0 -105 62 -173 158 -173c62 0 116 26 153 75s59 119 59 186c0 103 -60 168 -154 168z" />
    <glyph glyph-name="GB1.566" unicode="&#x3c3;" 
d="M819 546l-22 -81c-29 5 -45 6 -94 6c25 -29 34 -45 43 -73c8 -25 12 -51 12 -80c0 -84 -31 -170 -82 -230c-56 -66 -138 -102 -229 -102c-140 0 -228 89 -228 230c0 87 30 173 83 234c56 65 137 100 229 100c29 0 50 -3 81 -11h92c54 0 81 2 115 7zM527 486
c-129 0 -231 -119 -231 -270c0 -102 59 -165 153 -165c130 0 233 120 233 271c0 102 -59 164 -155 164z" />
    <glyph glyph-name="GB1.567" unicode="&#x3c4;" 
d="M790 546l-22 -81c-32 5 -58 7 -104 7h-113l-90 -338c-4 -17 -6 -32 -6 -46c0 -19 14 -31 38 -31c29 0 55 13 91 46l31 -62c-50 -39 -88 -54 -141 -54c-63 0 -99 33 -99 90c0 18 2 35 7 53l91 342h-80c-36 0 -65 -10 -90 -31c-15 -14 -24 -25 -38 -54l-51 49
c25 42 46 62 81 81c30 15 63 22 104 22h276c53 0 81 2 115 7z" />
    <glyph glyph-name="GB1.568" unicode="&#x3c5;" 
d="M253 453l-27 63c46 25 79 36 116 36c54 0 83 -27 83 -76c0 -15 -3 -36 -9 -55l-60 -205c-8 -27 -12 -53 -12 -77c0 -55 30 -86 85 -86c66 0 128 41 173 114c42 68 64 158 64 263c0 41 -2 64 -11 109h85c4 -41 5 -61 5 -94c0 -271 -132 -458 -324 -458
c-96 0 -153 52 -153 141c0 30 4 59 14 91l64 212c3 10 5 20 5 29c0 15 -10 25 -26 25c-20 0 -42 -9 -72 -32z" />
    <glyph glyph-name="GB1.569" unicode="&#x3c6;" 
d="M460 -7l-6 -20c-13 -49 -17 -72 -17 -92h-92c10 19 19 42 32 93l8 27c-57 16 -86 33 -118 67c-41 45 -64 105 -64 171c0 94 42 183 114 240c37 30 83 52 133 62c23 5 42 7 83 9l27 100c13 51 19 79 22 110h92c-13 -26 -21 -48 -37 -108l-29 -106c58 -13 89 -29 123 -64
c46 -46 71 -108 71 -178c0 -95 -41 -181 -112 -239c-61 -49 -124 -69 -230 -72zM403 66l114 419c-75 -5 -119 -23 -163 -66c-48 -46 -74 -110 -74 -179c0 -54 18 -99 52 -133c22 -21 38 -31 71 -41zM590 481l-114 -424c46 2 66 6 95 17c93 35 154 125 154 227
c0 58 -22 111 -59 144c-21 19 -39 28 -76 36z" />
    <glyph glyph-name="GB1.570" unicode="&#x3c7;" 
d="M479 149l-154 -183c-38 -44 -51 -62 -63 -85h-115c31 26 43 39 81 82l236 273l-18 186c-4 46 -13 59 -39 59c-27 0 -52 -14 -82 -45l-37 59c50 41 89 57 136 57c58 0 84 -31 90 -106l13 -146l126 152c38 46 50 63 63 87h114c-29 -24 -50 -46 -81 -82l-208 -243l20 -219
c3 -29 14 -42 38 -42c27 0 50 13 70 39l35 -65c-37 -33 -68 -46 -112 -46c-61 0 -94 30 -99 92z" />
    <glyph glyph-name="GB1.571" unicode="&#x3c8;" 
d="M189 456l-28 62c45 24 79 34 116 34c53 0 82 -25 82 -71c0 -15 -3 -32 -9 -51l-56 -178c-7 -24 -11 -48 -11 -70c0 -32 11 -62 31 -82c21 -22 42 -31 81 -37l158 585c16 60 19 75 22 112h91c-13 -27 -23 -56 -38 -112l-158 -587c64 10 97 24 141 60
c82 68 133 193 133 330c0 34 -1 50 -8 88h79c2 -31 3 -45 3 -67c0 -145 -38 -265 -111 -355c-43 -54 -108 -94 -177 -110c-21 -5 -39 -8 -77 -12l-6 -22c-11 -37 -16 -67 -18 -92h-91c11 19 12 22 33 93l7 24c-54 9 -79 20 -109 48c-37 35 -56 81 -56 136c0 27 4 53 12 80
l54 172c3 10 5 20 5 29c0 15 -9 23 -25 23c-19 0 -41 -10 -70 -30z" />
    <glyph glyph-name="GB1.572" unicode="&#x3c9;" 
d="M757 541l81 11c19 -65 27 -116 27 -182c0 -215 -122 -382 -279 -382c-51 0 -91 19 -110 52c-9 16 -12 29 -12 56c-25 -39 -38 -56 -59 -72c-31 -24 -68 -36 -112 -36c-59 0 -102 23 -131 69c-21 34 -33 81 -33 129c0 113 44 239 129 366l78 -21
c-87 -121 -132 -241 -132 -349c0 -82 36 -130 96 -130c71 0 125 59 154 168l41 150c14 53 19 77 22 110h88c-14 -29 -23 -57 -39 -112l-41 -147c-9 -33 -14 -65 -14 -93c0 -46 31 -75 79 -75c110 0 199 142 199 319c0 61 -8 104 -32 169z" />
    <glyph glyph-name="GB1.602" unicode="&#x410;" 
d="M861 0h-103c-8 36 -19 71 -31 102l-52 129h-349l-52 -129c-15 -38 -24 -67 -31 -102h-104c20 33 27 48 54 115l224 552c19 47 27 70 32 93h101c4 -19 9 -32 34 -93l224 -552c25 -60 38 -89 53 -115zM651 300l-129 330c-3 8 -3 9 -22 64c-5 -15 -9 -26 -11 -33
c-6 -16 -9 -27 -11 -31l-128 -330h301z" />
    <glyph glyph-name="GB1.603" unicode="&#x411;" 
d="M757 767v-83c-34 5 -60 7 -114 7h-331v-231h240c162 0 248 -79 248 -228c0 -150 -87 -232 -246 -232h-218c-46 0 -69 -1 -109 -3c6 40 8 73 8 114v538c0 42 -2 74 -8 114c40 -2 62 -3 109 -3h306c46 0 76 2 115 7zM312 68h240c109 0 169 58 169 163s-59 161 -171 161
h-238v-324z" />
    <glyph glyph-name="GB1.604" unicode="&#x412;" 
d="M555 0h-224c-44 0 -75 -1 -110 -3c7 40 9 66 9 124v535c0 43 -2 70 -8 106c31 -2 51 -2 109 -2h213c145 0 226 -66 226 -184c0 -58 -18 -102 -54 -134c-21 -18 -39 -27 -79 -40c46 -9 70 -19 97 -42c41 -35 62 -86 62 -150c0 -134 -88 -210 -241 -210zM307 434h236
c93 0 148 49 148 133c0 83 -50 125 -149 125h-235v-258zM307 366v-298h241c109 0 167 52 167 148c0 99 -58 150 -169 150h-239z" />
    <glyph glyph-name="GB1.605" unicode="&#x413;" 
d="M373 689v-572c0 -55 2 -83 8 -117h-95c6 34 8 65 8 116v533c0 43 -2 71 -8 114c35 -2 62 -3 109 -3h266c49 0 77 2 115 7v-85c-34 5 -60 7 -114 7h-289z" />
    <glyph glyph-name="GB1.606" unicode="&#x414;" 
d="M119 -49v47c0 19 -4 55 -7 74c9 0 9 0 26 -1c13 -1 22 -1 38 -1c47 110 64 161 81 241c20 94 30 190 30 307v31c0 48 -2 77 -8 115c59 -4 69 -4 109 -4h299c46 0 69 1 109 3c-6 -41 -8 -71 -8 -114v-579c19 0 26 0 60 2c-3 -28 -6 -62 -6 -65v-52c0 -37 1 -47 7 -75h-92
c6 30 7 40 7 89v32h-567v-58c0 -21 3 -47 7 -63h-93c5 23 8 48 8 71zM256 70h456v619h-348c-1 -174 -6 -252 -24 -351c-18 -101 -36 -157 -84 -268z" />
    <glyph glyph-name="GB1.607" unicode="&#x415;" 
d="M770 77v-84c-32 5 -59 7 -112 7h-293c-48 0 -76 -1 -110 -3c6 38 8 68 8 119v533c0 43 -2 70 -8 114c35 -2 62 -3 110 -3h285c44 0 78 2 112 7v-84c-35 5 -62 7 -112 7h-308v-256h263c44 0 74 2 112 7v-84c-34 5 -60 7 -112 7h-263v-294h317c46 0 74 2 111 7z" />
    <glyph glyph-name="GB1.608" unicode="&#x401;" 
d="M347 873h85v-72h-85v72zM567 873h85v-72h-85v72zM770 77v-84c-32 5 -59 7 -112 7h-293c-48 0 -76 -1 -110 -3c6 38 8 68 8 119v533c0 43 -2 70 -8 114c35 -2 62 -3 110 -3h285c44 0 78 2 112 7v-84c-35 5 -62 7 -112 7h-308v-256h263c44 0 74 2 112 7v-84
c-34 5 -60 7 -112 7h-263v-294h317c46 0 74 2 111 7z" />
    <glyph glyph-name="GB1.609" unicode="&#x416;" 
d="M537 363v-251c0 -51 2 -78 8 -112h-92c6 35 8 62 8 112v251h-25c-107 0 -118 -8 -196 -147c-53 -96 -88 -173 -98 -216h-104c13 20 21 33 33 54l40 72l60 108c74 132 101 158 172 169c-35 8 -59 29 -83 71l-105 189c-14 24 -24 32 -41 32c-12 0 -20 -3 -31 -12l-19 72
c24 10 43 14 64 14c42 0 63 -17 93 -73l112 -207c25 -45 50 -60 104 -60h24v219c0 47 -2 74 -8 112h92c-6 -36 -8 -66 -8 -112v-219h24c54 0 80 15 104 60l112 207c30 56 52 73 93 73c21 0 40 -4 64 -14l-19 -71c-10 8 -19 11 -31 11c-17 0 -27 -7 -40 -32l-106 -190
c-23 -41 -47 -61 -83 -71c87 -13 100 -30 261 -328c14 -25 32 -55 44 -74h-104c-5 24 -15 50 -35 93c-69 139 -119 223 -149 247c-25 20 -39 23 -135 23z" />
    <glyph glyph-name="GB1.610" unicode="&#x417;" 
d="M185 165l85 21c12 -35 20 -50 35 -67c38 -42 99 -64 178 -64c72 0 134 21 173 59c27 27 40 60 40 102c0 98 -67 147 -201 147c-54 0 -78 -2 -110 -7v81c35 -5 64 -7 100 -7c119 0 184 52 184 148c0 79 -72 131 -180 131c-67 0 -120 -19 -154 -56c-15 -17 -24 -33 -35 -68
l-84 18c20 48 32 69 54 93c50 53 125 80 225 80c154 0 255 -75 255 -188c0 -54 -14 -98 -42 -128c-30 -33 -65 -50 -128 -61c66 -7 100 -18 134 -44c42 -32 64 -82 64 -146c0 -140 -111 -223 -297 -223c-77 0 -155 19 -200 48s-68 61 -96 131z" />
    <glyph glyph-name="GB1.611" unicode="&#x418;" 
d="M703 760h105c-6 -36 -8 -66 -8 -112v-529c0 -52 2 -87 8 -119h-93c6 33 8 66 8 119v427c0 26 2 75 6 122c-14 -27 -47 -84 -55 -96l-321 -482c-27 -41 -38 -61 -52 -90h-109c6 32 8 62 8 112v533c0 51 -2 79 -8 115h93c-6 -35 -8 -66 -8 -115v-424c0 -9 -2 -53 -6 -133
c24 43 54 92 65 109l316 473c29 45 42 67 51 90z" />
    <glyph glyph-name="GB1.612" unicode="&#x419;" 
d="M601 879h73c-11 -39 -27 -62 -58 -84c-32 -22 -76 -35 -123 -35c-93 0 -153 42 -170 119h72c12 -43 43 -63 100 -63c35 0 66 9 84 25c11 9 16 18 22 38zM703 760h105c-6 -36 -8 -66 -8 -112v-529c0 -52 2 -87 8 -119h-93c6 33 8 66 8 119v427c0 26 2 75 6 122
c-14 -27 -47 -84 -55 -96l-321 -482c-27 -41 -38 -61 -52 -90h-109c6 32 8 62 8 112v533c0 51 -2 79 -8 115h93c-6 -35 -8 -66 -8 -115v-424c0 -9 -2 -53 -6 -133c24 43 54 92 65 109l316 473c29 45 42 67 51 90z" />
    <glyph glyph-name="GB1.613" unicode="&#x41a;" 
d="M839 0h-114c-13 40 -19 51 -128 220c-53 83 -68 101 -95 120c-23 15 -51 22 -94 22h-57v-250c0 -46 2 -75 8 -112h-94c7 39 9 69 9 112v536c0 45 -2 75 -8 112h93c-6 -36 -8 -64 -8 -112v-216h41c48 0 91 29 123 81l109 182c33 55 60 74 106 74c22 0 40 -5 63 -16
l-25 -72c-13 11 -21 14 -33 14c-17 0 -27 -8 -42 -33l-114 -185c-24 -38 -54 -62 -95 -73c46 -8 68 -18 96 -42c25 -22 48 -53 133 -181c85 -129 97 -146 126 -181z" />
    <glyph glyph-name="GB1.614" unicode="&#x41b;" 
d="M108 6l23 76c15 -11 30 -16 46 -16c47 0 69 38 73 126l22 449c2 26 2 31 2 50c0 27 -1 44 -4 72c35 -2 63 -3 110 -3h276c47 0 74 1 109 3c-6 -39 -8 -73 -8 -114v-535c0 -55 2 -80 8 -114h-93c6 34 8 63 8 114v575h-328l-25 -509c-6 -131 -51 -189 -144 -189
c-30 0 -51 4 -75 15z" />
    <glyph glyph-name="GB1.615" unicode="&#x41c;" 
d="M426 105l-201 446c-15 32 -26 63 -45 124c3 -43 7 -105 7 -129v-428c0 -53 2 -84 8 -118h-91c6 37 8 66 8 118v523c0 50 -2 82 -8 119h116c6 -30 18 -66 33 -99l247 -551l246 551c17 39 28 70 34 99h115c-6 -38 -8 -67 -8 -119v-523c0 -55 2 -82 8 -118h-91
c6 34 8 70 8 118v434c0 28 3 82 7 123c-10 -41 -24 -81 -43 -122l-204 -449c-20 -45 -30 -71 -38 -104h-71c-5 26 -17 60 -37 105z" />
    <glyph glyph-name="GB1.616" unicode="&#x41d;" 
d="M718 760h94c-6 -38 -8 -63 -8 -110v-538c0 -49 2 -73 8 -112h-94c6 37 8 64 8 112v253h-452v-253c0 -50 2 -76 8 -112h-94c6 34 8 63 8 112v536c0 48 -2 77 -8 112h94c-6 -37 -8 -63 -8 -110v-214h452v212c0 47 -2 78 -8 112z" />
    <glyph glyph-name="GB1.617" unicode="&#x41e;" 
d="M500 775c211 0 345 -154 345 -395s-135 -395 -346 -395s-345 154 -345 395c0 240 136 395 346 395zM501 56c69 0 128 23 173 68c57 56 89 149 89 256c0 110 -30 198 -88 256c-46 45 -106 69 -175 69c-160 0 -265 -128 -265 -324s106 -325 266 -325z" />
    <glyph glyph-name="GB1.618" unicode="&#x41f;" 
d="M708 690h-418v-578c0 -50 2 -77 8 -112h-93c6 36 8 64 8 112v537c0 43 -2 74 -8 114c35 -2 61 -3 109 -3h370c48 0 75 1 110 3c-6 -42 -8 -72 -8 -114v-537c0 -50 2 -77 8 -112h-94c6 36 8 63 8 112v578z" />
    <glyph glyph-name="GB1.619" unicode="&#x420;" 
d="M340 0h-94c6 36 8 65 8 112v537c0 41 -2 72 -8 114c36 -2 64 -3 110 -3h204c154 0 241 -79 241 -218c0 -147 -90 -232 -246 -232h-223v-197c0 -48 2 -79 8 -113zM332 379h223c106 0 166 57 166 159c0 100 -58 153 -166 153h-223v-312z" />
    <glyph glyph-name="GB1.620" unicode="&#x421;" 
d="M819 567l-80 -23c-15 43 -26 64 -47 88c-40 47 -100 72 -173 72c-162 0 -264 -124 -264 -323c0 -198 103 -324 264 -324c79 0 146 30 187 84c21 29 31 54 40 99l83 -19c-17 -59 -30 -87 -54 -119c-56 -75 -147 -116 -259 -116c-96 0 -177 30 -234 88
c-70 70 -108 179 -108 304c0 129 40 238 114 311c58 56 134 85 229 85c94 0 170 -27 224 -81c35 -34 54 -64 78 -126z" />
    <glyph glyph-name="GB1.621" unicode="&#x422;" 
d="M538 690v-577c0 -49 2 -77 8 -113h-94c6 31 8 66 8 113v577h-156c-51 0 -82 -2 -115 -7v84c35 -5 61 -7 114 -7h390c58 0 85 2 118 7v-84c-33 5 -62 7 -118 7h-155z" />
    <glyph glyph-name="GB1.622" unicode="&#x423;" 
d="M510 253l195 399c21 43 34 76 42 108h108c-16 -22 -34 -53 -60 -103l-293 -572c-40 -77 -94 -111 -179 -111c-37 0 -69 5 -104 17l18 80c23 -13 59 -22 90 -22c45 0 78 22 105 71l33 61l-234 474c-30 60 -42 81 -57 105h106c5 -26 14 -49 39 -103z" />
    <glyph glyph-name="GB1.623" unicode="&#x424;" 
d="M546 0h-93c7 39 8 58 8 109c-90 5 -131 13 -183 35c-103 44 -157 128 -157 243s54 198 156 243c52 23 87 30 184 36c0 41 -2 61 -8 94h93c-5 -29 -7 -54 -8 -94c98 -6 134 -13 185 -35c104 -46 157 -128 157 -244c0 -115 -54 -199 -156 -243c-52 -23 -91 -31 -186 -36
c1 -53 2 -73 8 -108zM462 178v418c-73 -3 -109 -9 -149 -26c-75 -32 -113 -94 -113 -183s38 -150 113 -182c40 -18 76 -24 149 -27zM537 596v-418c79 4 111 9 151 26c75 33 113 94 113 183c0 90 -38 151 -113 183c-40 17 -70 22 -151 26z" />
    <glyph glyph-name="GB1.624" unicode="&#x425;" 
d="M498 348l-165 -246c-24 -37 -43 -69 -60 -102h-114c55 71 68 90 89 119l201 283l-177 250c-28 38 -51 69 -82 108h112c12 -27 29 -56 56 -95l143 -211l138 211c35 53 44 68 55 95h113c-28 -34 -53 -67 -83 -109l-176 -249l200 -281c19 -27 43 -59 92 -121h-115
c-29 50 -40 69 -62 101z" />
    <glyph glyph-name="GB1.625" unicode="&#x426;" 
d="M763 649v-579c26 0 45 1 66 4c-6 -45 -8 -71 -8 -108c0 -40 2 -64 8 -86h-92c5 21 7 46 7 86v34h-431c-47 0 -69 -1 -109 -3c6 42 8 72 8 114v538c0 47 -2 74 -8 111h93c-6 -36 -8 -61 -8 -111v-579h397v579c0 47 -2 74 -8 111h93c-6 -36 -8 -63 -8 -111z" />
    <glyph glyph-name="GB1.626" unicode="&#x427;" 
d="M658 111v196c-92 -12 -162 -17 -234 -17c-159 0 -205 36 -205 161v198c0 47 -2 75 -8 111h93c-6 -36 -8 -61 -8 -111v-194c0 -80 26 -95 161 -95c68 0 128 4 202 12v277c0 48 -2 75 -9 111h94c-6 -35 -8 -60 -8 -111v-538c0 -51 2 -76 8 -111h-94c6 36 8 65 8 111z" />
    <glyph glyph-name="GB1.627" unicode="&#x428;" 
d="M537 70h295v579c0 45 -2 80 -8 111h92c-6 -36 -8 -63 -8 -111v-538c0 -44 2 -75 8 -114c-40 2 -63 3 -109 3h-614c-47 0 -69 -1 -109 -3c6 42 8 73 8 114v538c0 47 -2 74 -8 111h91c-6 -36 -8 -62 -8 -111v-579h295v579c0 48 -2 74 -8 111h91c-6 -37 -8 -62 -8 -111v-579
z" />
    <glyph glyph-name="GB1.628" unicode="&#x429;" 
d="M895 649v-579c23 0 34 1 56 4c-6 -43 -8 -68 -8 -106c0 -44 2 -68 8 -88h-94c6 21 8 44 8 86v34h-680c-46 0 -69 -1 -109 -3c6 43 8 72 8 114v538c0 47 -2 74 -8 111h92c-6 -36 -8 -62 -8 -111v-579h291v579c0 48 -2 74 -8 111h91c-6 -36 -8 -62 -8 -111v-579h293v579
c0 47 -2 75 -8 111h92c-6 -36 -8 -63 -8 -111z" />
    <glyph glyph-name="GB1.629" unicode="&#x42a;" 
d="M328 690h-167c-37 0 -82 -3 -91 -5c-9 -3 -16 -4 -19 -4l-1 1v84c36 -5 62 -6 114 -6h140c47 0 74 1 109 3c-6 -41 -8 -73 -8 -115v-188h246c155 0 241 -82 241 -229c0 -148 -86 -231 -241 -231h-222c-46 0 -69 -1 -109 -3c6 40 8 73 8 115v578zM405 68h240
c106 0 167 58 167 161c0 106 -60 163 -170 163h-237v-324z" />
    <glyph glyph-name="GB1.630" unicode="&#x42b;" 
d="M141 760h92c-7 -36 -9 -63 -9 -105v-195h234c155 0 241 -82 241 -229c0 -149 -86 -231 -241 -231h-208c-46 0 -69 -1 -109 -3c6 40 8 71 8 114v542c0 43 -2 74 -8 107zM224 68h230c107 0 167 58 167 163c0 104 -60 161 -170 161h-227v-324zM767 760h92
c-6 -36 -8 -64 -8 -112v-536c0 -52 2 -77 8 -112h-92c6 36 8 63 8 112v536c0 47 -2 75 -8 112z" />
    <glyph glyph-name="GB1.631" unicode="&#x42c;" 
d="M246 760h93c-6 -35 -8 -63 -8 -111v-189h247c155 0 241 -82 241 -229c0 -148 -86 -231 -241 -231h-223c-46 0 -69 -1 -109 -3c6 39 8 72 8 114v537c0 49 -2 76 -8 112zM331 68h241c107 0 167 58 167 162c0 105 -60 162 -170 162h-238v-324z" />
    <glyph glyph-name="GB1.632" unicode="&#x42d;" 
d="M734 358h-283c-54 0 -82 -2 -115 -7v82c40 -5 67 -7 115 -7h282c-10 93 -26 140 -64 191c-44 57 -112 89 -193 89c-85 0 -158 -36 -201 -100c-10 -16 -15 -26 -28 -62l-79 22c21 51 35 76 59 105c58 68 144 104 250 104c96 0 174 -29 231 -86c70 -71 108 -178 108 -308
c0 -244 -131 -394 -344 -394c-118 0 -212 46 -269 131c-18 27 -27 49 -45 104l81 20c11 -50 23 -78 51 -110c42 -49 105 -75 179 -75c92 0 167 41 215 116c32 51 44 94 50 185z" />
    <glyph glyph-name="GB1.633" unicode="&#x42e;" 
d="M317 366h-120v-254c0 -47 2 -77 8 -112h-92c6 37 8 64 8 112v536c0 46 -2 76 -8 112h92c-6 -34 -8 -64 -8 -110v-214h122c8 70 15 108 29 143c49 127 144 196 270 196c77 0 145 -27 194 -78c31 -31 55 -67 69 -105c24 -65 37 -138 37 -215c0 -95 -23 -193 -59 -254
c-53 -90 -137 -138 -241 -138s-187 46 -240 135c-40 65 -55 124 -61 246zM615 55c57 0 106 20 142 59c35 37 55 78 69 140c8 40 13 87 13 131c0 199 -85 321 -223 321c-73 0 -136 -38 -175 -105c-29 -50 -48 -138 -48 -225c0 -64 11 -129 31 -182c32 -87 105 -139 191 -139z
" />
    <glyph glyph-name="GB1.634" unicode="&#x42f;" 
d="M281 0h-106c17 29 27 51 57 120c31 70 71 151 89 181c28 44 46 60 80 70c-54 12 -79 24 -108 50c-41 35 -60 83 -60 147c0 124 80 192 225 192h220c46 0 74 1 109 3c-6 -40 -8 -72 -8 -115v-536c0 -49 2 -76 8 -112h-93c6 36 8 62 8 113v234h-185
c-81 0 -119 -39 -180 -185c-40 -95 -53 -132 -56 -162zM702 416v275h-243c-95 0 -146 -46 -146 -131c0 -87 61 -144 152 -144h237z" />
    <glyph glyph-name="GB1.635" unicode="&#x430;" 
d="M641 0v71c-39 -35 -58 -48 -92 -61s-70 -20 -104 -20c-110 0 -177 57 -177 152c0 80 50 138 143 164c59 17 107 23 230 26v58c0 68 -43 103 -126 103c-55 0 -96 -14 -124 -43c-13 -14 -21 -28 -31 -58l-78 17c18 46 31 67 56 89c41 38 101 57 176 57
c132 0 200 -56 200 -164v-281c0 -45 2 -70 8 -110h-81zM641 208v65c-119 -3 -176 -10 -221 -29c-51 -21 -76 -55 -76 -102c0 -55 41 -90 106 -90c58 0 121 28 160 70c23 25 31 47 31 86z" />
    <glyph glyph-name="GB1.636" unicode="&#x431;" 
d="M596 654h-97c-61 0 -104 -21 -135 -65c-24 -35 -36 -69 -49 -143c20 29 30 40 52 55c44 32 91 47 152 47c155 0 249 -103 249 -273c0 -174 -103 -285 -264 -285c-174 0 -270 120 -270 338c0 113 23 223 58 283c42 70 111 107 201 107h94c46 0 77 18 92 53l61 -42
c-31 -52 -74 -75 -144 -75zM513 485c-122 0 -200 -86 -200 -218c0 -130 73 -212 190 -212c51 0 95 16 128 46c40 37 60 94 60 169c0 136 -66 215 -178 215z" />
    <glyph glyph-name="GB1.637" unicode="&#x432;" 
d="M539 0h-149c-47 0 -69 -1 -109 -3c5 39 7 69 7 114v316c0 46 -2 74 -7 115c35 -2 62 -3 109 -3h140c115 0 174 -44 174 -130c0 -68 -34 -109 -102 -124c36 -4 55 -11 77 -28c30 -24 45 -60 45 -106c0 -97 -66 -151 -185 -151zM362 315h166c65 0 101 31 101 86
c0 51 -33 75 -101 75h-166v-161zM362 254v-191h171c77 0 115 31 115 94c0 65 -38 97 -117 97h-169z" />
    <glyph glyph-name="GB1.638" unicode="&#x433;" 
d="M717 545v-79c-36 5 -60 6 -112 6h-182v-360c0 -46 2 -73 7 -112h-89c5 42 7 71 7 112v317c0 46 -2 76 -7 113c35 -2 61 -3 108 -3h157c51 0 75 1 111 6z" />
    <glyph glyph-name="GB1.639" unicode="&#x434;" 
d="M217 -54v53c0 16 -2 37 -7 70c25 -2 32 -2 50 -2c39 74 54 113 67 182c12 58 17 117 17 194c0 38 -2 63 -6 98c31 -2 45 -2 108 -2h182c63 0 77 0 109 2c-5 -38 -6 -70 -6 -115v-359c14 0 14 0 47 2c-4 -24 -6 -53 -6 -70v-52c0 -26 2 -47 6 -67h-88c4 23 7 49 7 83v37
h-405v-37c0 -33 2 -58 6 -83h-88c5 20 7 40 7 66zM339 66h319v407h-242c0 -119 -4 -170 -16 -233c-13 -63 -26 -101 -61 -174z" />
    <glyph glyph-name="GB1.640" unicode="&#x435;" 
d="M749 258h-421c3 -67 13 -104 40 -140c32 -44 81 -68 141 -68c81 0 137 40 165 116l70 -27c-19 -42 -32 -60 -55 -83c-47 -46 -108 -70 -181 -70c-157 0 -256 110 -256 283c0 171 98 283 248 283c129 0 222 -83 242 -217c1 -11 5 -50 7 -77zM331 321h338
c-6 56 -21 92 -53 123c-31 30 -70 45 -118 45c-61 0 -112 -31 -142 -87c-14 -25 -19 -43 -25 -81z" />
    <glyph glyph-name="GB1.641" unicode="&#x451;" 
d="M749 258h-421c3 -67 13 -104 40 -140c32 -44 81 -68 141 -68c81 0 137 40 165 116l70 -27c-19 -42 -32 -60 -55 -83c-47 -46 -108 -70 -181 -70c-157 0 -256 110 -256 283c0 171 98 283 248 283c129 0 222 -83 242 -217c1 -11 5 -50 7 -77zM331 321h338
c-6 56 -21 92 -53 123c-31 30 -70 45 -118 45c-61 0 -112 -31 -142 -87c-14 -25 -19 -43 -25 -81zM344 678h89v-73h-89v73zM566 678h89v-73h-89v73z" />
    <glyph glyph-name="GB1.642" unicode="&#x436;" 
d="M464 311v122c0 39 -2 65 -7 106h86c-5 -42 -6 -66 -6 -106v-122h24c26 0 47 14 62 40l84 143c22 38 42 51 80 51c19 0 31 -2 52 -10l-21 -60c-7 5 -16 8 -24 8c-12 0 -20 -6 -30 -23l-75 -124c-18 -30 -35 -43 -63 -51c44 -7 59 -17 88 -54c15 -19 44 -66 111 -179
c13 -22 21 -34 34 -52h-95c-8 31 -19 53 -73 148c-53 90 -66 101 -131 101h-24v-143c0 -42 2 -70 7 -106h-86c5 41 7 68 7 106v143h-23c-66 0 -79 -10 -132 -102c-54 -92 -63 -111 -74 -147h-94c10 12 15 20 36 57c29 50 76 128 94 155c18 28 38 48 55 58c12 7 23 11 48 16
c-28 6 -46 19 -64 50l-75 124c-10 17 -18 22 -31 22c-8 0 -15 -2 -23 -7l-20 60c20 7 32 10 51 10c39 0 58 -12 81 -51l83 -143c16 -26 37 -40 62 -40h26z" />
    <glyph glyph-name="GB1.643" unicode="&#x437;" 
d="M265 117l74 19c13 -32 23 -46 46 -60c24 -16 61 -24 108 -24c98 0 150 36 150 103c0 69 -42 94 -159 94c-36 0 -51 -1 -66 -6v74c13 -4 30 -6 55 -6c34 0 73 5 96 13c33 10 53 41 53 82c0 55 -41 82 -124 82c-46 0 -76 -8 -99 -26c-18 -13 -26 -26 -38 -57l-73 22
c21 47 38 69 71 90s88 33 147 33c115 0 191 -52 191 -130c0 -39 -10 -70 -30 -92c-24 -26 -51 -38 -106 -47c58 -4 85 -11 112 -31c30 -22 46 -57 46 -102c0 -99 -84 -158 -224 -158c-89 0 -151 20 -192 62c-15 17 -24 31 -38 65z" />
    <glyph glyph-name="GB1.644" unicode="&#x438;" 
d="M263 539h88c-5 -38 -7 -68 -7 -112v-259c0 -21 -1 -35 -3 -68c11 20 20 35 31 49l236 321c21 29 32 46 43 69h85c-4 -41 -6 -68 -6 -112v-315c0 -45 2 -72 7 -112h-88c5 35 7 64 7 112v261c0 30 0 39 2 59c-8 -18 -13 -27 -24 -41l-240 -323c-19 -26 -31 -46 -42 -68h-90
c6 40 8 70 8 112v315c0 40 -2 69 -7 112z" />
    <glyph glyph-name="GB1.645" unicode="&#x439;" 
d="M588 648h63c-7 -28 -14 -42 -31 -59c-29 -29 -73 -46 -120 -46c-49 0 -96 19 -123 52c-13 15 -19 28 -25 53h63c5 -20 10 -28 21 -37c16 -12 38 -18 65 -18c50 0 78 17 87 55zM263 539h88c-5 -38 -7 -68 -7 -112v-259c0 -21 -1 -35 -3 -68c11 20 20 35 31 49l236 321
c21 29 32 46 43 69h85c-4 -41 -6 -68 -6 -112v-315c0 -45 2 -72 7 -112h-88c5 35 7 64 7 112v261c0 30 0 39 2 59c-8 -18 -13 -27 -24 -41l-240 -323c-19 -26 -31 -46 -42 -68h-90c6 40 8 70 8 112v315c0 40 -2 69 -7 112z" />
    <glyph glyph-name="GB1.646" unicode="&#x43a;" 
d="M309 539h89c-5 -38 -7 -67 -7 -111v-113h21c31 0 66 22 85 52l80 131c22 35 46 48 88 48c20 0 36 -4 55 -13l-26 -63c-9 7 -16 10 -26 10c-14 0 -22 -5 -33 -22l-79 -120c-16 -26 -40 -43 -72 -52c39 -6 60 -15 81 -34c22 -21 22 -21 134 -179c33 -47 40 -56 55 -73h-108
c-9 27 -25 54 -84 143c-58 89 -80 106 -137 106h-34v-137c0 -44 2 -71 7 -112h-89c5 45 7 70 7 112v316c0 40 -2 65 -7 111z" />
    <glyph glyph-name="GB1.647" unicode="&#x43b;" 
d="M428 539h173c44 0 68 1 104 3c-5 -37 -7 -66 -7 -109v-327c0 -42 2 -69 7 -106h-89c5 38 7 68 7 106v366h-226l-16 -326c-3 -52 -12 -87 -27 -110c-19 -28 -53 -43 -95 -43c-25 0 -41 3 -62 11l19 69c11 -8 23 -12 35 -12c22 0 38 10 46 29c6 14 9 32 10 64l16 300v28
c0 26 0 36 -2 60c41 -2 62 -3 107 -3z" />
    <glyph glyph-name="GB1.648" unicode="&#x43c;" 
d="M809 0h-84c5 42 7 73 7 112v248c0 31 1 48 3 70c-9 -25 -14 -38 -23 -56l-146 -280c-20 -37 -33 -68 -39 -94h-54c-7 28 -19 58 -38 95l-146 279c-10 20 -15 32 -23 56c2 -25 3 -42 3 -70v-248c0 -46 2 -74 7 -112h-85c5 40 7 68 7 112v314c0 39 -2 68 -6 113h96
c2 -17 16 -54 27 -75l186 -360l185 359c10 21 25 61 27 76h95c-4 -40 -6 -71 -6 -111v-316c0 -47 2 -73 7 -112z" />
    <glyph glyph-name="GB1.649" unicode="&#x43d;" 
d="M348 0h-88c5 43 7 70 7 112v315c0 40 -2 69 -7 112h88c-5 -40 -7 -66 -7 -112v-109h318v109c0 40 -2 72 -7 112h88c-5 -38 -7 -64 -7 -112v-315c0 -46 2 -72 7 -112h-88c5 41 7 73 7 112v139h-318v-139c0 -46 2 -72 7 -112z" />
    <glyph glyph-name="GB1.650" unicode="&#x43e;" 
d="M501 -13c-164 0 -268 109 -268 282s104 283 267 283s266 -110 266 -282c0 -171 -104 -283 -265 -283zM502 489c-119 0 -192 -83 -192 -218c0 -136 73 -219 190 -219s189 83 189 218s-72 219 -187 219z" />
    <glyph glyph-name="GB1.651" unicode="&#x43f;" 
d="M280 111v315c0 48 -2 76 -7 116c35 -2 61 -3 108 -3h239c47 0 73 1 108 3c-5 -36 -7 -68 -7 -113v-318c0 -45 2 -73 7 -111h-88c5 40 7 71 7 111v361h-293v-361c0 -46 2 -73 7 -111h-88c5 41 7 71 7 111z" />
    <glyph glyph-name="GB1.652" unicode="&#x440;" 
d="M344 539v-52c0 -12 -1 -25 -3 -40c42 66 116 102 206 102c152 0 246 -98 246 -256c0 -159 -95 -258 -247 -258c-89 0 -162 36 -205 100c3 -32 4 -42 4 -66v-84c0 -43 2 -70 7 -104h-88c5 36 7 65 7 103v449c0 45 -2 72 -7 106h80zM716 293c0 120 -67 193 -176 193
c-114 0 -193 -79 -193 -192c0 -119 75 -196 192 -196c109 0 177 75 177 195z" />
    <glyph glyph-name="GB1.653" unicode="&#x441;" 
d="M738 397l-73 -23c-29 78 -77 115 -151 115c-110 0 -180 -86 -180 -220c0 -132 72 -216 184 -216c57 0 104 23 130 64c10 14 15 26 22 51l75 -20c-14 -36 -24 -55 -41 -77c-44 -55 -108 -84 -189 -84c-157 0 -258 109 -258 280c0 173 100 286 253 286
c83 0 150 -32 193 -92c14 -19 23 -35 35 -64z" />
    <glyph glyph-name="GB1.654" unicode="&#x442;" 
d="M544 0h-89c5 35 7 62 7 112v360h-88c-51 0 -77 -1 -112 -6v79c36 -5 61 -6 111 -6h254c49 0 77 2 111 6v-79c-36 5 -60 6 -112 6h-89v-360c0 -45 2 -72 7 -112z" />
    <glyph glyph-name="GB1.655" unicode="&#x443;" 
d="M478 47l-183 382c-43 91 -43 91 -54 110h99c4 -26 17 -63 33 -99l144 -313l128 312c20 48 29 75 33 100h94c-7 -15 -24 -52 -50 -110l-197 -452c-19 -44 -37 -65 -66 -80c-22 -11 -49 -16 -84 -16c-33 0 -51 3 -88 13l23 72c33 -15 50 -20 68 -20c36 0 60 17 77 52z" />
    <glyph glyph-name="GB1.656" unicode="&#x444;" 
d="M537 647v-160c0 -11 -2 -28 -4 -41c36 66 102 103 184 103c139 0 227 -104 227 -268s-88 -267 -227 -267c-61 0 -113 19 -151 57c-18 18 -24 27 -33 44c3 -23 4 -40 4 -64v-82c0 -40 2 -63 7 -88h-87c5 29 7 53 7 88v82c0 25 1 39 3 64c-28 -62 -100 -101 -183 -101
c-140 0 -227 102 -227 266c0 165 88 269 228 269c82 0 147 -37 183 -103c-2 13 -3 26 -3 42v160c0 40 -2 71 -7 112h86c-5 -38 -7 -64 -7 -113zM294 485c-100 0 -162 -78 -162 -202c0 -128 61 -206 160 -206c108 0 174 77 174 203s-67 205 -172 205zM707 486
c-105 0 -173 -80 -173 -204c0 -126 67 -204 174 -204c100 0 161 78 161 206c0 124 -63 202 -162 202z" />
    <glyph glyph-name="GB1.657" unicode="&#x445;" 
d="M750 0h-99c-14 26 -24 42 -45 74l-106 153l-111 -162c-16 -22 -24 -37 -39 -65h-99c16 20 43 55 65 87l139 192l-129 180c-6 9 -14 19 -60 80h98c10 -23 20 -40 39 -67l98 -141l97 141c17 25 30 47 39 67h96c-23 -32 -44 -59 -61 -83l-126 -177l132 -184
c10 -13 10 -13 72 -95z" />
    <glyph glyph-name="GB1.658" unicode="&#x446;" 
d="M704 429v-361c15 0 23 0 51 2c-4 -26 -7 -55 -7 -73v-54c0 -22 2 -44 7 -63h-89c5 27 7 50 7 85v35h-291c-46 0 -68 -1 -108 -3c5 38 7 66 7 113v317c0 45 -2 74 -6 112h89c-6 -43 -8 -69 -8 -112v-360h273v362c0 40 -2 69 -7 110h89c-5 -41 -7 -66 -7 -110z" />
    <glyph glyph-name="GB1.659" unicode="&#x447;" 
d="M269 539h89c-5 -40 -7 -65 -7 -112v-101c0 -49 15 -57 109 -57c51 0 90 2 138 8v152c0 38 -2 69 -7 110h89c-5 -40 -7 -65 -7 -110v-319c0 -46 2 -72 7 -110h-89c5 46 7 73 7 110v108c-58 -9 -109 -13 -172 -13c-115 0 -150 27 -150 114v108c0 40 -2 68 -7 112z" />
    <glyph glyph-name="GB1.660" unicode="&#x448;" 
d="M825 427v-313c0 -49 2 -80 7 -116c-59 2 -71 2 -111 2h-446c-46 0 -68 -1 -108 -3c5 40 7 68 7 116v314c0 40 -2 68 -7 112h86c-5 -41 -7 -66 -7 -112v-360h217v361c0 39 -2 68 -7 111h85c-5 -39 -7 -65 -7 -111v-361h219v360c0 41 -2 69 -7 112h86
c-5 -40 -7 -68 -7 -112z" />
    <glyph glyph-name="GB1.661" unicode="&#x449;" 
d="M822 428v-361c18 1 23 1 48 3c-5 -34 -7 -56 -7 -73v-51c0 -24 2 -44 7 -66h-89c5 25 7 50 7 85v35h-516c-46 0 -68 -1 -108 -3c5 40 7 69 7 116v315c0 40 -2 66 -7 111h86c-5 -38 -7 -64 -7 -111v-361h217v361c0 41 -2 69 -7 111h85c-5 -39 -7 -65 -7 -111v-361h219v361
c0 40 -2 68 -7 111h86c-5 -41 -7 -66 -7 -111z" />
    <glyph glyph-name="GB1.662" unicode="&#x44a;" 
d="M264 539h76c45 0 71 1 106 3c-5 -37 -7 -69 -7 -109v-102h174c118 0 184 -60 184 -165c0 -106 -66 -166 -184 -166h-149c-44 0 -66 -1 -106 -3c5 39 7 69 7 114v361h-100c-52 0 -79 -1 -112 -6v79c36 -5 62 -6 111 -6zM439 65h166c78 0 115 33 115 101
c0 69 -36 100 -117 100h-164v-201z" />
    <glyph glyph-name="GB1.663" unicode="&#x44b;" 
d="M293 331h172c118 0 185 -60 185 -165c0 -106 -66 -166 -184 -166h-145c-45 0 -72 -1 -108 -3c5 39 7 70 7 114v316c0 39 -2 68 -7 112h87c-5 -41 -7 -65 -7 -112v-96zM293 65h166c81 0 116 30 116 100s-36 101 -118 101h-164v-201zM700 539h87c-5 -40 -7 -66 -7 -112
v-316c0 -48 2 -72 7 -111h-87c5 40 7 70 7 111v316c0 41 -2 70 -7 112z" />
    <glyph glyph-name="GB1.664" unicode="&#x44c;" 
d="M387 331h174c117 0 184 -60 184 -165c0 -106 -66 -166 -184 -166h-147c-46 0 -68 -1 -108 -3c5 38 7 67 7 117v316c0 37 -2 65 -7 109h88c-5 -40 -7 -65 -7 -109v-99zM387 65h166c80 0 115 31 115 100c0 70 -36 101 -117 101h-164v-201z" />
    <glyph glyph-name="GB1.665" unicode="&#x44d;" 
d="M662 247h-180c-51 0 -77 -1 -109 -6v75c33 -4 62 -6 108 -6h182c-6 55 -18 84 -44 116c-33 41 -82 62 -140 62c-56 0 -103 -19 -135 -55c-13 -15 -19 -25 -29 -51l-73 20c21 42 32 60 53 80c44 45 109 69 186 69c160 0 259 -107 259 -281c0 -175 -101 -282 -266 -282
c-81 0 -145 24 -186 71c-22 25 -34 47 -53 98l75 16c8 -32 16 -49 35 -70c31 -33 77 -52 131 -52c66 0 120 29 153 81c21 33 29 61 33 115z" />
    <glyph glyph-name="GB1.666" unicode="&#x44e;" 
d="M279 252v-138c0 -45 2 -73 7 -114h-88c5 45 7 73 7 114v310c0 43 -2 70 -7 115h88c-5 -41 -7 -67 -7 -114v-109h82c13 80 29 119 64 160c42 49 100 74 171 74c147 0 234 -104 234 -279c0 -174 -91 -282 -236 -282c-84 0 -151 36 -192 103c-26 43 -36 81 -43 160h-80z
M593 52c98 0 161 85 161 219c0 133 -61 216 -159 216s-162 -86 -162 -219c0 -134 61 -216 160 -216z" />
    <glyph glyph-name="GB1.667" unicode="&#x44f;" 
d="M618 238h-128c-51 0 -72 -20 -115 -108c-32 -66 -46 -104 -49 -130h-98c10 16 17 28 32 60c80 166 94 187 138 202c-38 4 -57 11 -79 28c-31 23 -47 59 -47 106c0 91 63 143 173 143h146c45 0 73 1 108 3c-5 -37 -7 -69 -7 -114v-316c0 -45 2 -71 7 -112h-88
c5 41 7 72 7 112v126zM618 303v171h-171c-64 0 -99 -30 -99 -86s36 -85 104 -85h166z" />
  </font>
</defs>
</svg>
